<?xml version="1.0" encoding="UTF-8"?>
<svg xmlns="http://www.w3.org/2000/svg" xmlns:xlink="http://www.w3.org/1999/xlink" width="75pt" height="59pt" viewBox="0 0 75 59" version="1.1">
<g id="surface1">
<path style=" stroke:none;fill-rule:evenodd;fill:rgb(13.699341%,12.199402%,12.5%);fill-opacity:1;" d="M 7.558594 23.65625 L 7.558594 22.152344 L 15.742188 25.605469 L 23.941406 22.152344 L 23.941406 23.640625 L 17.453125 26.25 L 23.941406 28.980469 L 17.550781 31.628906 L 23.929688 34.265625 L 23.929688 35.765625 L 15.785156 32.34375 L 7.558594 35.738281 L 7.558594 34.265625 L 14.046875 31.617188 L 7.558594 28.898438 L 13.992188 26.261719 L 7.558594 23.65625 "/>
<path style=" stroke:none;fill-rule:evenodd;fill:rgb(100%,100%,100%);fill-opacity:1;" d="M 11.007813 28.9375 L 15.816406 30.929688 L 20.480469 28.980469 L 15.730469 27.003906 L 11.007813 28.9375 "/>
<path style=" stroke:none;fill-rule:evenodd;fill:rgb(92.89856%,10.998535%,14.099121%);fill-opacity:1;" d="M 13.460938 28.964844 L 15.753906 29.917969 L 18.042969 28.964844 L 15.746094 28.003906 L 13.460938 28.964844 "/>
<path style=" stroke:none;fill-rule:evenodd;fill:rgb(92.89856%,10.998535%,14.099121%);fill-opacity:1;" d="M 65.8125 24.085938 L 66.835938 23.089844 C 65.597656 21.980469 63.378906 21.828125 62.210938 22.773438 C 61.167969 23.640625 61.128906 25.589844 62.234375 26.429688 C 62.691406 26.691406 63.210938 26.867188 63.832031 26.910156 C 64.890625 26.945313 65.703125 27.183594 65.46875 28.265625 C 64.964844 29.410156 62.886719 29.011719 62.078125 28.316406 L 61.070313 29.3125 C 62.519531 30.839844 66.28125 30.898438 66.945313 28.546875 C 67.203125 27.625 66.957031 26.582031 66.265625 26.113281 C 65.742188 25.683594 64.859375 25.542969 63.882813 25.484375 C 62.34375 25.1875 62.703125 23.441406 64.257813 23.523438 C 64.859375 23.539063 65.40625 23.664063 65.8125 24.085938 Z M 60.472656 22.226563 L 60.472656 27.464844 C 60.472656 31.378906 54.550781 31.378906 54.550781 27.464844 L 54.550781 22.226563 L 56.132813 22.226563 L 56.132813 27.628906 C 56.132813 29.457031 58.894531 29.457031 58.894531 27.628906 L 58.894531 22.226563 Z M 48.730469 22.234375 L 50.292969 22.234375 L 50.292969 28.902344 L 53.988281 28.902344 L 53.988281 30.3125 L 48.730469 30.3125 Z M 42.066406 30.300781 L 43.644531 30.300781 L 43.644531 27.253906 L 45.382813 27.253906 C 47.148438 27.082031 48.167969 25.820313 47.765625 24.09375 C 47.511719 22.984375 46.726563 22.359375 45.394531 22.25 L 42.050781 22.25 C 42.050781 22.25 42.050781 30.300781 42.066406 30.300781 Z M 43.644531 23.648438 L 45.203125 23.648438 C 45.8125 23.648438 46.3125 24.144531 46.3125 24.757813 C 46.3125 25.367188 45.8125 25.867188 45.203125 25.867188 L 43.644531 25.867188 Z M 33.191406 30.300781 L 34.769531 30.300781 L 34.769531 27.253906 L 36.503906 27.253906 C 38.273438 27.082031 39.289063 25.820313 38.890625 24.09375 C 38.636719 22.984375 37.851563 22.359375 36.519531 22.25 L 33.175781 22.25 C 33.175781 22.25 33.175781 30.300781 33.191406 30.300781 Z M 34.769531 23.648438 L 36.324219 23.648438 C 36.933594 23.648438 37.4375 24.144531 37.4375 24.757813 C 37.4375 25.367188 36.933594 25.867188 36.324219 25.867188 L 34.769531 25.867188 Z M 30.652344 24.726563 L 32.28125 24.726563 C 31.945313 22.5625 29.757813 21.570313 27.851563 22.539063 C 26.882813 23.03125 26.371094 23.863281 26.367188 25.0625 L 26.367188 27.753906 C 26.449219 30.84375 31.683594 31.574219 32.28125 27.835938 L 30.667969 27.835938 C 30.160156 29.632813 28.109375 29.109375 27.976563 27.835938 C 27.964844 27.734375 27.957031 27.574219 27.949219 27.378906 C 27.914063 26.480469 27.914063 24.832031 28.019531 24.410156 C 28.304688 23.265625 30.347656 23.121094 30.652344 24.726563 "/>
<path style=" stroke:none;fill-rule:evenodd;fill:rgb(13.699341%,12.199402%,12.5%);fill-opacity:1;" d="M 26.867188 34.535156 L 28.621094 34.535156 L 28.621094 34.203125 C 28.511719 32.617188 26.511719 32.558594 26.34375 34.15625 C 26.117188 35.632813 27.570313 36.28125 28.546875 35.34375 L 28.207031 35.019531 C 27.625 35.539063 26.726563 35.191406 26.867188 34.535156 Z M 26.867188 34.152344 L 28.085938 34.152344 C 28.109375 33.285156 26.914063 33.117188 26.867188 34.152344 "/>
<path style=" stroke:none;fill-rule:evenodd;fill:rgb(13.699341%,12.199402%,12.5%);fill-opacity:1;" d="M 29.425781 35.722656 L 29.988281 35.722656 L 29.988281 34.105469 C 29.933594 33.34375 31.09375 33.179688 31.097656 34.105469 L 31.097656 35.726563 L 31.640625 35.726563 L 31.640625 34.125 C 31.640625 33.871094 31.628906 33.710938 31.5 33.476563 C 31.167969 32.878906 30.386719 32.839844 29.976563 33.300781 L 29.976563 33.03125 L 29.4375 33.03125 C 29.4375 33.03125 29.4375 35.722656 29.425781 35.722656 "/>
<path style=" stroke:none;fill-rule:evenodd;fill:rgb(13.699341%,12.199402%,12.5%);fill-opacity:1;" d="M 32.558594 35.722656 L 33.109375 35.722656 L 33.109375 34.105469 C 33.054688 33.34375 34.195313 33.179688 34.199219 34.105469 L 34.199219 35.726563 L 34.730469 35.726563 L 34.730469 34.265625 C 34.730469 33.964844 34.746094 33.757813 34.59375 33.476563 C 34.265625 32.878906 33.5 32.839844 33.097656 33.300781 L 33.097656 31.933594 L 32.566406 31.933594 C 32.566406 31.933594 32.566406 35.722656 32.558594 35.722656 "/>
<path style=" stroke:none;fill-rule:evenodd;fill:rgb(13.699341%,12.199402%,12.5%);fill-opacity:1;" d="M 38.609375 35.722656 L 39.171875 35.722656 L 39.171875 34.105469 C 39.117188 33.34375 40.277344 33.179688 40.28125 34.105469 L 40.28125 35.726563 L 40.824219 35.726563 L 40.824219 34.125 C 40.824219 33.871094 40.8125 33.710938 40.683594 33.476563 C 40.351563 32.878906 39.570313 32.839844 39.164063 33.300781 L 39.164063 33.03125 L 38.621094 33.03125 C 38.621094 33.03125 38.621094 35.722656 38.609375 35.722656 "/>
<path style=" stroke:none;fill-rule:evenodd;fill:rgb(13.699341%,12.199402%,12.5%);fill-opacity:1;" d="M 37.140625 35.726563 L 37.65625 35.726563 L 37.65625 33.910156 C 37.667969 32.855469 36.171875 32.726563 35.59375 33.386719 L 35.945313 33.707031 C 36.175781 33.328125 37.101563 33.335938 37.128906 33.917969 L 37.128906 34.148438 L 36.335938 34.148438 C 35.242188 34.21875 35.171875 35.515625 36.210938 35.726563 C 36.539063 35.796875 36.898438 35.730469 37.132813 35.480469 Z M 37.125 34.539063 L 36.378906 34.539063 C 35.941406 34.601563 35.792969 35.277344 36.488281 35.304688 C 36.769531 35.3125 37.082031 35.199219 37.128906 34.867188 L 37.125 34.539063 "/>
<path style=" stroke:none;fill-rule:evenodd;fill:rgb(13.699341%,12.199402%,12.5%);fill-opacity:1;" d="M 43.65625 35.382813 C 43.464844 35.605469 43.179688 35.742188 42.78125 35.742188 C 41.90625 35.742188 41.589844 35.066406 41.589844 34.375 C 41.589844 33.679688 41.90625 33.007813 42.78125 33.007813 C 43.195313 33.007813 43.484375 33.15625 43.675781 33.390625 L 43.320313 33.714844 C 43.210938 33.578125 43.046875 33.492188 42.820313 33.492188 C 42.308594 33.492188 42.128906 33.925781 42.128906 34.375 C 42.128906 34.824219 42.308594 35.257813 42.820313 35.257813 C 43.042969 35.257813 43.203125 35.175781 43.3125 35.042969 L 43.65625 35.382813 "/>
<path style=" stroke:none;fill-rule:evenodd;fill:rgb(13.699341%,12.199402%,12.5%);fill-opacity:1;" d="M 44.40625 31.925781 L 44.972656 31.925781 L 44.972656 32.492188 L 44.40625 32.492188 Z M 44.40625 33.027344 L 44.972656 33.027344 L 44.972656 35.738281 L 44.40625 35.738281 L 44.40625 33.027344 "/>
<path style=" stroke:none;fill-rule:evenodd;fill:rgb(13.699341%,12.199402%,12.5%);fill-opacity:1;" d="M 45.894531 35.722656 L 46.457031 35.722656 L 46.457031 34.105469 C 46.402344 33.34375 47.5625 33.179688 47.566406 34.105469 L 47.566406 35.726563 L 48.109375 35.726563 L 48.109375 34.125 C 48.109375 33.871094 48.097656 33.710938 47.96875 33.476563 C 47.636719 32.878906 46.855469 32.839844 46.445313 33.300781 L 46.445313 33.03125 L 45.90625 33.03125 C 45.90625 33.03125 45.90625 35.722656 45.894531 35.722656 "/>
<path style=" stroke:none;fill-rule:evenodd;fill:rgb(13.699341%,12.199402%,12.5%);fill-opacity:1;" d="M 56.0625 31.925781 L 56.628906 31.925781 L 56.628906 32.492188 L 56.0625 32.492188 Z M 56.0625 33.027344 L 56.628906 33.027344 L 56.628906 35.738281 L 56.0625 35.738281 L 56.0625 33.027344 "/>
<path style=" stroke:none;fill-rule:evenodd;fill:rgb(13.699341%,12.199402%,12.5%);fill-opacity:1;" d="M 60.347656 31.925781 L 60.914063 31.925781 L 60.914063 32.492188 L 60.347656 32.492188 Z M 60.347656 33.027344 L 60.914063 33.027344 L 60.914063 35.738281 L 60.347656 35.738281 L 60.347656 33.027344 "/>
<path style=" stroke:none;fill-rule:evenodd;fill:rgb(13.699341%,12.199402%,12.5%);fill-opacity:1;" d="M 63.992188 34.375 C 63.992188 34.964844 63.742188 35.75 62.855469 35.75 C 61.964844 35.75 61.71875 34.964844 61.71875 34.375 C 61.71875 33.789063 61.964844 33.003906 62.855469 33.003906 C 63.742188 33.003906 63.992188 33.789063 63.992188 34.375 Z M 63.464844 34.375 C 63.464844 34.769531 63.332031 35.296875 62.855469 35.296875 C 62.375 35.296875 62.242188 34.769531 62.242188 34.375 C 62.242188 33.980469 62.375 33.453125 62.855469 33.453125 C 63.332031 33.453125 63.464844 33.980469 63.464844 34.375 "/>
<path style=" stroke:none;fill-rule:evenodd;fill:rgb(13.699341%,12.199402%,12.5%);fill-opacity:1;" d="M 64.800781 35.722656 L 65.363281 35.722656 L 65.363281 34.105469 C 65.308594 33.34375 66.46875 33.179688 66.472656 34.105469 L 66.472656 35.726563 L 67.011719 35.726563 L 67.011719 34.125 C 67.011719 33.871094 67.007813 33.710938 66.875 33.476563 C 66.542969 32.878906 65.761719 32.839844 65.351563 33.300781 L 65.351563 33.03125 L 64.8125 33.03125 C 64.8125 33.03125 64.8125 35.722656 64.800781 35.722656 "/>
<path style=" stroke:none;fill-rule:evenodd;fill:rgb(13.699341%,12.199402%,12.5%);fill-opacity:1;" d="M 53.085938 33.03125 L 54.0625 35.726563 L 54.5 35.726563 L 55.480469 33.023438 L 54.929688 33.023438 L 54.292969 34.914063 L 53.640625 33.023438 C 53.640625 33.023438 53.074219 33.019531 53.085938 33.03125 "/>
<path style=" stroke:none;fill-rule:evenodd;fill:rgb(13.699341%,12.199402%,12.5%);fill-opacity:1;" d="M 59.117188 33.648438 L 59.46875 33.292969 C 58.945313 32.941406 58.289063 32.875 57.75 33.21875 C 57.292969 33.578125 57.363281 34.460938 58.046875 34.542969 L 58.726563 34.605469 C 59.097656 34.660156 59.113281 34.957031 58.945313 35.144531 C 58.660156 35.460938 57.953125 35.285156 57.683594 35.019531 L 57.320313 35.382813 C 57.601563 35.660156 58.132813 35.800781 58.617188 35.75 C 59.832031 35.613281 59.9375 34.292969 58.789063 34.136719 L 58.316406 34.105469 C 57.914063 34.054688 57.886719 33.691406 58.125 33.527344 C 58.378906 33.351563 58.894531 33.46875 59.117188 33.648438 "/>
<path style=" stroke:none;fill-rule:evenodd;fill:rgb(13.699341%,12.199402%,12.5%);fill-opacity:1;" d="M 49.011719 36.492188 C 49.425781 36.996094 50.511719 36.996094 50.933594 36.359375 C 51.109375 36.09375 51.085938 35.917969 51.085938 35.625 L 51.085938 33.027344 L 50.589844 33.027344 L 50.589844 33.335938 C 50.292969 32.957031 49.601563 32.847656 49.214844 33.253906 C 48.769531 33.710938 48.753906 35.265625 49.480469 35.585938 C 49.84375 35.738281 50.296875 35.660156 50.570313 35.351563 L 50.570313 35.792969 C 50.53125 36.414063 49.78125 36.582031 49.371094 36.15625 C 49.371094 36.15625 49.007813 36.476563 49.011719 36.492188 Z M 50.597656 34.316406 C 50.597656 34.679688 50.472656 35.167969 50.023438 35.167969 C 49.578125 35.167969 49.453125 34.679688 49.453125 34.316406 C 49.453125 33.953125 49.578125 33.46875 50.023438 33.46875 C 50.472656 33.46875 50.597656 33.953125 50.597656 34.316406 "/>
</g>
</svg>
