<?xml version="1.0" encoding="UTF-8"?>
<svg xmlns="http://www.w3.org/2000/svg" xmlns:xlink="http://www.w3.org/1999/xlink" width="193pt" height="193pt" viewBox="0 0 193 193" version="1.1">
<g id="surface1">
<path style=" stroke:none;fill-rule:evenodd;fill:rgb(100%,100%,100%);fill-opacity:1;" d="M 0 0.242188 L 192.757813 0.242188 L 192.757813 193 L 0 193 L 0 0.242188 "/>
<path style=" stroke:none;fill-rule:evenodd;fill:rgb(0%,37.298584%,68.199158%);fill-opacity:1;" d="M 15.824219 79.945313 L 15.824219 85.011719 L 19.375 85.011719 C 19.707031 85.011719 20.042969 85.011719 20.402344 84.945313 C 20.757813 84.898438 21.136719 84.8125 21.425781 84.609375 C 21.71875 84.433594 21.964844 84.164063 22.117188 83.851563 C 22.277344 83.585938 22.34375 83.269531 22.386719 82.960938 C 22.453125 82.535156 22.429688 82.109375 22.320313 81.6875 C 22.253906 81.375 22.097656 81.0625 21.875 80.816406 C 21.671875 80.546875 21.382813 80.371094 21.070313 80.234375 C 20.800781 80.101563 20.488281 80.058594 20.175781 80.011719 C 19.863281 79.96875 19.550781 79.945313 19.238281 79.945313 Z M 39.683594 84.210938 C 39.371094 84.210938 39.058594 84.253906 38.769531 84.34375 C 38.414063 84.453125 38.054688 84.632813 37.855469 84.945313 C 37.699219 85.125 37.609375 85.347656 37.566406 85.570313 C 37.519531 85.703125 37.496094 85.839844 37.476563 85.972656 L 31.226563 85.972656 C 31.226563 85.726563 31.246094 85.480469 31.269531 85.234375 C 31.335938 84.589844 31.539063 83.941406 31.851563 83.359375 C 32.273438 82.578125 32.921875 81.910156 33.679688 81.464844 C 34.441406 80.972656 35.265625 80.703125 36.136719 80.527344 C 36.804688 80.371094 37.519531 80.28125 38.210938 80.214844 C 38.703125 80.191406 39.195313 80.167969 39.683594 80.144531 C 39.863281 80.144531 40.042969 80.144531 40.21875 80.144531 C 40.933594 80.167969 41.628906 80.214844 42.339844 80.28125 C 43.101563 80.371094 43.859375 80.480469 44.59375 80.703125 C 45.308594 80.90625 46.023438 81.195313 46.648438 81.640625 C 47.296875 82.066406 47.855469 82.667969 48.1875 83.359375 C 48.523438 84.050781 48.613281 84.855469 48.636719 85.636719 C 48.679688 86.328125 48.65625 87 48.636719 87.667969 C 48.613281 88.871094 48.613281 90.101563 48.589844 91.308594 C 48.570313 92.265625 48.546875 93.226563 48.589844 94.183594 C 48.613281 94.476563 48.636719 94.765625 48.636719 95.078125 C 48.679688 95.503906 48.703125 95.925781 48.769531 96.351563 C 48.8125 96.617188 48.882813 96.886719 48.96875 97.15625 C 49.035156 97.332031 49.105469 97.535156 49.171875 97.710938 C 49.238281 97.824219 49.28125 97.933594 49.328125 98.046875 L 42.566406 98.046875 C 42.519531 97.933594 42.496094 97.824219 42.476563 97.710938 C 42.453125 97.667969 42.453125 97.601563 42.429688 97.554688 C 42.40625 97.398438 42.363281 97.265625 42.339844 97.132813 C 42.339844 96.996094 42.320313 96.886719 42.320313 96.753906 C 42.296875 96.640625 42.296875 96.550781 42.296875 96.441406 C 42.183594 96.550781 42.09375 96.640625 41.984375 96.730469 C 41.941406 96.796875 41.894531 96.84375 41.828125 96.886719 C 41.539063 97.175781 41.203125 97.421875 40.824219 97.621094 C 40.464844 97.847656 40.085938 98.023438 39.683594 98.160156 C 39.484375 98.226563 39.28125 98.292969 39.058594 98.359375 C 38.277344 98.558594 37.429688 98.648438 36.605469 98.628906 C 35.734375 98.628906 34.886719 98.515625 34.058594 98.246094 C 33.367188 98.046875 32.699219 97.734375 32.164063 97.265625 C 31.558594 96.773438 31.09375 96.105469 30.800781 95.367188 C 30.535156 94.699219 30.421875 93.960938 30.421875 93.226563 C 30.398438 92.511719 30.511719 91.796875 30.78125 91.148438 C 31.023438 90.503906 31.425781 89.898438 31.960938 89.476563 C 32.496094 88.984375 33.167969 88.671875 33.835938 88.449219 C 34.441406 88.226563 35.066406 88.09375 35.667969 87.960938 C 36.179688 87.867188 36.695313 87.78125 37.207031 87.714844 C 37.652344 87.644531 38.078125 87.578125 38.523438 87.511719 C 38.902344 87.46875 39.304688 87.398438 39.683594 87.335938 L 39.839844 87.3125 C 40.175781 87.265625 40.511719 87.222656 40.84375 87.132813 C 41.113281 87.066406 41.382813 87 41.605469 86.84375 C 41.738281 86.753906 41.871094 86.617188 41.960938 86.464844 C 42.050781 86.308594 42.117188 86.128906 42.140625 85.949219 C 42.164063 85.703125 42.164063 85.480469 42.074219 85.257813 C 42.007813 84.988281 41.828125 84.742188 41.605469 84.589844 C 41.402344 84.433594 41.136719 84.34375 40.890625 84.296875 C 40.578125 84.230469 40.242188 84.210938 39.929688 84.210938 C 39.839844 84.210938 39.773438 84.210938 39.683594 84.210938 Z M 42.183594 90.121094 C 42.027344 90.214844 41.894531 90.300781 41.738281 90.367188 C 41.605469 90.457031 41.46875 90.503906 41.316406 90.570313 C 41.113281 90.660156 40.890625 90.726563 40.667969 90.769531 C 40.445313 90.835938 40.199219 90.90625 39.953125 90.949219 C 39.863281 90.972656 39.773438 90.992188 39.683594 91.015625 C 39.484375 91.0625 39.261719 91.105469 39.058594 91.148438 C 38.902344 91.195313 38.726563 91.238281 38.570313 91.285156 C 38.144531 91.441406 37.699219 91.6875 37.476563 92.066406 C 37.230469 92.398438 37.164063 92.890625 37.253906 93.335938 C 37.320313 93.738281 37.519531 94.097656 37.808594 94.320313 C 38.078125 94.542969 38.390625 94.65625 38.726563 94.699219 C 39.058594 94.742188 39.371094 94.742188 39.683594 94.699219 C 39.839844 94.675781 39.976563 94.632813 40.132813 94.585938 C 40.621094 94.453125 41.113281 94.183594 41.449219 93.785156 C 41.738281 93.492188 41.941406 93.113281 42.050781 92.734375 C 42.117188 92.46875 42.140625 92.222656 42.140625 91.953125 C 42.164063 91.707031 42.164063 91.441406 42.183594 91.171875 Z M 184.253906 91.082031 C 184.207031 91.285156 184.183594 91.484375 184.140625 91.6875 C 184.027344 92.398438 183.804688 93.09375 183.515625 93.761719 C 183.203125 94.410156 182.800781 95.035156 182.332031 95.570313 C 181.796875 96.21875 181.148438 96.730469 180.433594 97.175781 C 179.652344 97.644531 178.785156 98.003906 177.890625 98.203125 C 176.996094 98.425781 176.0625 98.515625 175.121094 98.515625 C 174.027344 98.515625 172.9375 98.40625 171.910156 98.09375 C 170.972656 97.847656 170.078125 97.421875 169.296875 96.84375 C 168.449219 96.285156 167.734375 95.570313 167.15625 94.722656 C 166.550781 93.875 166.105469 92.890625 165.859375 91.863281 C 165.636719 90.992188 165.570313 90.101563 165.613281 89.207031 C 165.636719 88.246094 165.746094 87.289063 166.0625 86.375 C 166.351563 85.390625 166.84375 84.476563 167.488281 83.671875 C 168.003906 82.980469 168.605469 82.402344 169.320313 81.910156 C 170.078125 81.351563 170.972656 80.929688 171.886719 80.660156 C 172.957031 80.347656 174.050781 80.214844 175.167969 80.234375 C 176.285156 80.214844 177.421875 80.347656 178.492188 80.683594 C 179.476563 80.972656 180.414063 81.417969 181.238281 82.019531 C 182.042969 82.625 182.710938 83.382813 183.226563 84.277344 C 183.648438 85.011719 183.960938 85.816406 184.050781 86.664063 C 184.074219 86.84375 184.097656 87.042969 184.097656 87.222656 L 177.710938 87.222656 C 177.691406 87.132813 177.691406 87.019531 177.667969 86.933594 C 177.578125 86.53125 177.398438 86.148438 177.132813 85.839844 C 176.886719 85.546875 176.574219 85.300781 176.195313 85.144531 C 175.859375 85.011719 175.503906 84.945313 175.121094 84.96875 C 174.542969 84.988281 173.964844 85.167969 173.515625 85.546875 C 173.269531 85.75 173.070313 86.015625 172.890625 86.308594 C 172.734375 86.597656 172.621094 86.933594 172.535156 87.265625 C 172.332031 87.960938 172.265625 88.648438 172.265625 89.363281 C 172.265625 89.8125 172.289063 90.234375 172.332031 90.683594 C 172.398438 91.261719 172.535156 91.84375 172.847656 92.332031 C 173.003906 92.621094 173.203125 92.890625 173.472656 93.09375 C 173.738281 93.335938 174.097656 93.472656 174.429688 93.5625 C 175.011719 93.71875 175.613281 93.695313 176.148438 93.492188 C 176.484375 93.382813 176.796875 93.203125 177.042969 92.957031 C 177.242188 92.757813 177.398438 92.488281 177.535156 92.199219 C 177.644531 91.953125 177.734375 91.707031 177.800781 91.441406 C 177.824219 91.308594 177.847656 91.195313 177.847656 91.082031 Z M 162.871094 74.03125 L 162.871094 78.671875 L 156.195313 78.671875 L 156.195313 74.03125 Z M 162.871094 80.636719 L 162.871094 98.046875 L 156.195313 98.046875 L 156.195313 80.636719 Z M 140.996094 80.636719 L 140.996094 82.804688 C 141.195313 82.558594 141.398438 82.335938 141.621094 82.109375 C 141.933594 81.777344 142.289063 81.464844 142.671875 81.21875 C 143.09375 80.949219 143.5625 80.75 144.03125 80.59375 C 144.746094 80.324219 145.527344 80.191406 146.285156 80.167969 C 147.246094 80.144531 148.183594 80.28125 149.074219 80.613281 C 150.078125 80.972656 151.039063 81.597656 151.644531 82.445313 C 152.3125 83.316406 152.625 84.433594 152.734375 85.523438 C 152.824219 86.148438 152.824219 86.777344 152.824219 87.398438 L 152.824219 98.046875 L 146.085938 98.046875 L 146.085938 88.316406 C 146.0625 88.070313 146.0625 87.824219 146.039063 87.578125 C 146.019531 87.265625 145.949219 86.933594 145.816406 86.664063 C 145.660156 86.351563 145.4375 86.085938 145.171875 85.90625 C 144.746094 85.613281 144.210938 85.503906 143.695313 85.523438 C 143.273438 85.546875 142.894531 85.660156 142.535156 85.859375 C 142.15625 86.0625 141.820313 86.351563 141.597656 86.730469 C 141.464844 87 141.375 87.265625 141.328125 87.558594 C 141.261719 87.867188 141.261719 88.183594 141.242188 88.472656 L 141.242188 98.046875 L 134.566406 98.046875 L 134.566406 80.636719 Z M 122.3125 80.144531 C 123.585938 80.144531 124.859375 80.304688 126.0625 80.75 C 127.222656 81.152344 128.296875 81.796875 129.1875 82.644531 C 130.148438 83.539063 130.863281 84.65625 131.308594 85.882813 C 131.734375 87 131.910156 88.183594 131.890625 89.386719 C 131.890625 90.523438 131.710938 91.6875 131.308594 92.757813 C 130.886719 93.941406 130.214844 95.054688 129.300781 95.925781 C 128.386719 96.863281 127.222656 97.578125 125.972656 98.003906 C 124.8125 98.425781 123.585938 98.605469 122.359375 98.605469 L 122.269531 98.605469 C 121.042969 98.605469 119.8125 98.425781 118.652344 98.003906 C 117.402344 97.578125 116.242188 96.863281 115.328125 95.925781 C 114.414063 95.054688 113.742188 93.941406 113.320313 92.757813 C 112.917969 91.6875 112.738281 90.523438 112.738281 89.386719 C 112.714844 88.183594 112.894531 87 113.320313 85.882813 C 113.765625 84.65625 114.480469 83.539063 115.4375 82.644531 C 116.332031 81.796875 117.402344 81.152344 118.5625 80.75 C 119.769531 80.304688 121.042969 80.144531 122.3125 80.144531 Z M 122.3125 93.828125 L 122.335938 93.828125 C 122.804688 93.828125 123.296875 93.71875 123.675781 93.472656 C 124.054688 93.25 124.367188 92.914063 124.589844 92.535156 C 124.835938 92.132813 124.96875 91.707031 125.035156 91.261719 C 125.171875 90.636719 125.191406 90.011719 125.191406 89.386719 C 125.191406 88.828125 125.191406 88.269531 125.082031 87.714844 C 125.015625 87.242188 124.878906 86.796875 124.636719 86.375 C 124.410156 85.972656 124.078125 85.613281 123.675781 85.390625 C 123.273438 85.144531 122.804688 85.011719 122.3125 85.011719 C 121.824219 85.011719 121.355469 85.144531 120.953125 85.390625 C 120.550781 85.613281 120.214844 85.972656 119.992188 86.375 C 119.746094 86.796875 119.613281 87.242188 119.546875 87.714844 C 119.433594 88.269531 119.433594 88.828125 119.433594 89.386719 C 119.433594 90.011719 119.457031 90.636719 119.589844 91.261719 C 119.65625 91.707031 119.789063 92.132813 120.035156 92.535156 C 120.261719 92.914063 120.574219 93.25 120.953125 93.472656 C 121.332031 93.71875 121.824219 93.828125 122.289063 93.828125 Z M 110.550781 85.726563 L 104.480469 85.726563 C 104.457031 85.636719 104.4375 85.546875 104.414063 85.4375 C 104.347656 85.167969 104.257813 84.855469 104.035156 84.65625 C 103.898438 84.476563 103.675781 84.363281 103.453125 84.277344 C 103.027344 84.121094 102.605469 84.097656 102.160156 84.097656 C 101.867188 84.097656 101.554688 84.121094 101.265625 84.1875 C 101.019531 84.253906 100.773438 84.34375 100.597656 84.519531 C 100.417969 84.675781 100.304688 84.898438 100.304688 85.144531 C 100.304688 85.414063 100.394531 85.660156 100.574219 85.839844 C 100.753906 86.039063 100.996094 86.128906 101.242188 86.195313 C 102.226563 86.53125 103.1875 86.640625 104.167969 86.84375 C 105.039063 87 105.910156 87.199219 106.777344 87.445313 C 107.5625 87.667969 108.339844 87.9375 109.011719 88.40625 C 109.65625 88.808594 110.195313 89.386719 110.527344 90.054688 C 110.839844 90.636719 110.976563 91.308594 111.019531 91.976563 C 111.085938 92.867188 110.976563 93.804688 110.597656 94.632813 C 110.238281 95.480469 109.613281 96.21875 108.878906 96.753906 C 108.027344 97.421875 107.003906 97.847656 105.953125 98.113281 C 104.792969 98.40625 103.609375 98.492188 102.449219 98.515625 C 101.421875 98.515625 100.417969 98.472656 99.414063 98.269531 C 98.386719 98.113281 97.382813 97.800781 96.46875 97.265625 C 95.6875 96.820313 94.949219 96.238281 94.4375 95.480469 C 93.945313 94.765625 93.632813 93.941406 93.519531 93.09375 C 93.476563 92.800781 93.453125 92.535156 93.429688 92.242188 L 99.726563 92.242188 C 99.726563 92.332031 99.75 92.398438 99.75 92.488281 C 99.816406 92.890625 99.925781 93.292969 100.195313 93.582031 C 100.417969 93.851563 100.730469 94.03125 101.042969 94.140625 C 101.46875 94.273438 101.914063 94.320313 102.359375 94.320313 C 102.761719 94.34375 103.1875 94.296875 103.566406 94.140625 C 103.832031 94.050781 104.078125 93.894531 104.257813 93.652344 C 104.414063 93.449219 104.503906 93.160156 104.503906 92.890625 C 104.480469 92.601563 104.367188 92.3125 104.167969 92.132813 C 103.945313 91.933594 103.632813 91.84375 103.320313 91.753906 C 102.539063 91.574219 101.824219 91.394531 101.066406 91.238281 C 100.171875 91.039063 99.234375 90.835938 98.34375 90.59375 C 97.492188 90.367188 96.691406 90.121094 95.976563 89.65625 C 95.238281 89.207031 94.613281 88.539063 94.234375 87.78125 C 93.902344 87.089844 93.765625 86.328125 93.789063 85.546875 C 93.789063 84.65625 94.011719 83.785156 94.457031 83.046875 C 95.0625 82.019531 96.15625 81.308594 97.292969 80.882813 C 98.8125 80.257813 100.441406 80.125 102.070313 80.125 C 103.496094 80.125 104.949219 80.214844 106.332031 80.660156 C 107.472656 80.996094 108.566406 81.550781 109.324219 82.445313 C 109.925781 83.113281 110.328125 83.984375 110.4375 84.878906 C 110.484375 85.167969 110.507813 85.460938 110.527344 85.75 Z M 82.046875 84.210938 C 81.734375 84.210938 81.421875 84.253906 81.132813 84.34375 C 80.777344 84.453125 80.417969 84.632813 80.21875 84.945313 C 80.0625 85.125 79.996094 85.347656 79.929688 85.570313 C 79.882813 85.703125 79.859375 85.839844 79.839844 85.972656 L 73.589844 85.972656 C 73.589844 85.726563 73.609375 85.480469 73.632813 85.234375 C 73.699219 84.589844 73.902344 83.941406 74.214844 83.359375 C 74.636719 82.578125 75.285156 81.910156 76.066406 81.464844 C 76.804688 80.972656 77.628906 80.703125 78.5 80.527344 C 79.191406 80.371094 79.882813 80.28125 80.574219 80.214844 C 81.066406 80.191406 81.558594 80.167969 82.046875 80.144531 C 82.226563 80.144531 82.40625 80.144531 82.585938 80.144531 C 83.296875 80.167969 83.988281 80.214844 84.703125 80.28125 C 85.464844 80.371094 86.222656 80.480469 86.960938 80.703125 C 87.671875 80.90625 88.386719 81.195313 89.011719 81.640625 C 89.660156 82.066406 90.21875 82.667969 90.550781 83.359375 C 90.886719 84.050781 90.976563 84.855469 91 85.636719 C 91.042969 86.328125 91.023438 87 91.023438 87.667969 C 90.976563 88.871094 90.976563 90.101563 90.953125 91.308594 C 90.933594 92.265625 90.933594 93.226563 90.953125 94.183594 C 90.976563 94.476563 91 94.765625 91.023438 95.078125 C 91.042969 95.503906 91.066406 95.925781 91.132813 96.351563 C 91.175781 96.617188 91.246094 96.886719 91.332031 97.15625 C 91.402344 97.332031 91.46875 97.535156 91.554688 97.710938 C 91.601563 97.824219 91.644531 97.933594 91.691406 98.046875 L 84.925781 98.046875 C 84.882813 97.933594 84.859375 97.824219 84.839844 97.710938 C 84.816406 97.667969 84.816406 97.601563 84.792969 97.554688 C 84.773438 97.398438 84.726563 97.265625 84.726563 97.132813 C 84.703125 96.996094 84.683594 96.886719 84.683594 96.753906 C 84.660156 96.640625 84.660156 96.550781 84.660156 96.441406 C 84.546875 96.550781 84.460938 96.640625 84.347656 96.730469 C 84.304688 96.796875 84.257813 96.84375 84.191406 96.886719 C 83.902344 97.175781 83.566406 97.421875 83.210938 97.621094 C 82.828125 97.847656 82.449219 98.023438 82.046875 98.160156 C 81.847656 98.226563 81.648438 98.292969 81.421875 98.359375 C 80.640625 98.558594 79.792969 98.648438 78.96875 98.628906 C 78.097656 98.628906 77.25 98.515625 76.421875 98.246094 C 75.730469 98.046875 75.0625 97.734375 74.527344 97.265625 C 73.925781 96.773438 73.457031 96.105469 73.164063 95.367188 C 72.898438 94.699219 72.785156 93.960938 72.785156 93.226563 C 72.785156 92.511719 72.875 91.796875 73.144531 91.148438 C 73.386719 90.503906 73.8125 89.898438 74.324219 89.476563 C 74.863281 88.984375 75.53125 88.671875 76.199219 88.449219 C 76.804688 88.226563 77.429688 88.09375 78.054688 87.960938 C 78.542969 87.867188 79.058594 87.78125 79.59375 87.714844 C 80.019531 87.644531 80.441406 87.578125 80.886719 87.511719 C 81.265625 87.46875 81.667969 87.398438 82.046875 87.335938 L 82.203125 87.3125 C 82.539063 87.265625 82.875 87.222656 83.210938 87.132813 C 83.476563 87.066406 83.746094 87 83.96875 86.84375 C 84.125 86.753906 84.234375 86.617188 84.324219 86.464844 C 84.414063 86.308594 84.480469 86.128906 84.503906 85.949219 C 84.527344 85.703125 84.527344 85.480469 84.4375 85.257813 C 84.371094 84.988281 84.191406 84.742188 83.96875 84.589844 C 83.765625 84.433594 83.523438 84.34375 83.253906 84.296875 C 82.941406 84.230469 82.605469 84.210938 82.292969 84.210938 C 82.226563 84.210938 82.136719 84.210938 82.046875 84.210938 Z M 84.546875 90.121094 C 84.390625 90.214844 84.257813 90.300781 84.101563 90.367188 C 83.96875 90.457031 83.835938 90.503906 83.675781 90.570313 C 83.476563 90.660156 83.253906 90.726563 83.050781 90.769531 C 82.808594 90.835938 82.5625 90.90625 82.339844 90.949219 C 82.25 90.972656 82.160156 90.992188 82.046875 91.015625 C 81.847656 91.0625 81.625 91.105469 81.421875 91.148438 C 81.265625 91.195313 81.109375 91.238281 80.933594 91.285156 C 80.507813 91.441406 80.0625 91.6875 79.839844 92.066406 C 79.59375 92.398438 79.527344 92.890625 79.617188 93.335938 C 79.683594 93.738281 79.882813 94.097656 80.195313 94.320313 C 80.441406 94.542969 80.753906 94.65625 81.089844 94.699219 C 81.421875 94.742188 81.734375 94.742188 82.046875 94.699219 C 82.203125 94.675781 82.359375 94.632813 82.496094 94.585938 C 82.984375 94.453125 83.476563 94.183594 83.8125 93.785156 C 84.101563 93.492188 84.304688 93.113281 84.414063 92.734375 C 84.480469 92.46875 84.503906 92.222656 84.527344 91.953125 C 84.527344 91.707031 84.527344 91.441406 84.546875 91.171875 Z M 58.523438 80.636719 L 58.523438 82.804688 C 58.722656 82.558594 58.925781 82.335938 59.148438 82.109375 C 59.460938 81.777344 59.816406 81.464844 60.21875 81.21875 C 60.621094 80.949219 61.089844 80.75 61.558594 80.59375 C 62.296875 80.324219 63.054688 80.191406 63.8125 80.167969 C 64.773438 80.144531 65.710938 80.28125 66.601563 80.613281 C 67.628906 80.972656 68.566406 81.597656 69.191406 82.445313 C 69.839844 83.316406 70.175781 84.433594 70.265625 85.523438 C 70.351563 86.148438 70.351563 86.777344 70.351563 87.398438 L 70.351563 98.046875 L 63.613281 98.046875 L 63.613281 88.316406 C 63.613281 88.070313 63.589844 87.824219 63.566406 87.578125 C 63.542969 87.265625 63.476563 86.933594 63.34375 86.664063 C 63.210938 86.351563 62.988281 86.085938 62.695313 85.90625 C 62.273438 85.613281 61.738281 85.503906 61.222656 85.523438 C 60.824219 85.546875 60.421875 85.660156 60.0625 85.859375 C 59.683594 86.0625 59.347656 86.351563 59.148438 86.730469 C 58.992188 87 58.902344 87.265625 58.859375 87.558594 C 58.789063 87.867188 58.789063 88.183594 58.769531 88.472656 L 58.769531 98.046875 L 52.09375 98.046875 L 52.09375 80.636719 Z M 19.128906 90.636719 L 15.824219 90.636719 L 15.824219 98.046875 L 8.503906 98.046875 L 8.503906 74.03125 L 19.128906 74.03125 C 19.777344 74.03125 20.402344 74.054688 21.046875 74.097656 C 21.964844 74.144531 22.878906 74.230469 23.769531 74.476563 C 24.550781 74.699219 25.332031 75.035156 26.023438 75.503906 C 26.761719 75.972656 27.386719 76.597656 27.898438 77.289063 C 28.4375 78.027344 28.835938 78.851563 29.082031 79.699219 C 29.371094 80.59375 29.484375 81.507813 29.484375 82.421875 C 29.507813 83.136719 29.441406 83.851563 29.285156 84.542969 C 29.128906 85.28125 28.859375 85.996094 28.480469 86.640625 C 28.125 87.3125 27.675781 87.914063 27.140625 88.449219 C 26.605469 89.007813 25.957031 89.453125 25.265625 89.789063 C 24.53125 90.144531 23.726563 90.347656 22.921875 90.457031 C 22.097656 90.59375 21.25 90.613281 20.421875 90.636719 L 19.128906 90.636719 "/>
<path style=" stroke:none;fill-rule:evenodd;fill:rgb(65.499878%,66.299438%,67.498779%);fill-opacity:1;" d="M 104.613281 114.207031 C 104.613281 114.40625 104.59375 114.585938 104.613281 114.785156 C 104.613281 114.855469 104.636719 114.945313 104.636719 115.011719 C 104.703125 115.34375 104.746094 115.703125 104.882813 116.015625 C 104.972656 116.238281 105.105469 116.4375 105.261719 116.617188 C 105.441406 116.796875 105.640625 116.953125 105.886719 117.019531 C 106.066406 117.085938 106.242188 117.109375 106.421875 117.109375 C 106.464844 117.109375 106.488281 117.109375 106.511719 117.109375 C 106.847656 117.109375 107.179688 117.042969 107.425781 116.863281 C 107.648438 116.730469 107.828125 116.527344 107.9375 116.328125 C 108.183594 115.949219 108.273438 115.546875 108.339844 115.121094 C 108.410156 114.699219 108.429688 114.273438 108.429688 113.828125 C 108.429688 113.292969 108.386719 112.734375 108.230469 112.21875 C 108.140625 111.929688 108.027344 111.640625 107.851563 111.417969 C 107.695313 111.214844 107.492188 111.058594 107.269531 110.949219 C 107.023438 110.835938 106.777344 110.792969 106.511719 110.816406 C 106.488281 110.816406 106.464844 110.816406 106.445313 110.816406 C 106.152344 110.816406 105.886719 110.902344 105.640625 111.039063 C 105.417969 111.171875 105.21875 111.371094 105.0625 111.617188 C 104.902344 111.886719 104.792969 112.199219 104.726563 112.511719 C 104.636719 112.890625 104.613281 113.269531 104.613281 113.671875 C 104.613281 113.847656 104.613281 114.027344 104.613281 114.207031 Z M 30.378906 118.9375 L 30.378906 109.027344 L 34.171875 109.027344 L 34.171875 118.9375 Z M 30.378906 107.378906 L 30.378906 104.742188 L 34.171875 104.742188 L 34.171875 107.378906 Z M 41.941406 116.972656 C 42.253906 116.972656 42.566406 116.886719 42.808594 116.707031 C 43.011719 116.574219 43.167969 116.371094 43.300781 116.171875 C 43.503906 115.8125 43.636719 115.433594 43.703125 115.054688 C 43.769531 114.71875 43.792969 114.40625 43.792969 114.074219 C 43.816406 113.605469 43.769531 113.113281 43.65625 112.644531 C 43.589844 112.355469 43.480469 112.0625 43.34375 111.820313 C 43.1875 111.550781 42.988281 111.328125 42.71875 111.171875 C 42.519531 111.058594 42.273438 110.992188 42.007813 110.96875 C 41.984375 110.96875 41.960938 110.96875 41.941406 110.96875 C 41.648438 110.96875 41.382813 111.039063 41.136719 111.195313 C 40.890625 111.347656 40.667969 111.59375 40.53125 111.863281 C 40.332031 112.199219 40.21875 112.578125 40.152344 112.980469 C 40.109375 113.359375 40.085938 113.738281 40.085938 114.117188 C 40.085938 114.519531 40.132813 114.921875 40.199219 115.300781 C 40.289063 115.636719 40.378906 115.96875 40.578125 116.238281 C 40.710938 116.460938 40.914063 116.660156 41.15625 116.773438 C 41.359375 116.90625 41.605469 116.972656 41.851563 116.972656 C 41.894531 116.972656 41.917969 116.972656 41.941406 116.972656 Z M 41.941406 109.007813 C 41.984375 109.007813 42.007813 109.027344 42.027344 109.027344 C 42.320313 109.117188 42.585938 109.230469 42.832031 109.386719 C 43.078125 109.542969 43.324219 109.742188 43.523438 109.945313 C 43.589844 110.03125 43.679688 110.121094 43.746094 110.1875 L 43.746094 104.699219 L 47.542969 104.699219 L 47.542969 118.9375 L 44.039063 118.9375 L 43.949219 117.488281 C 43.859375 117.597656 43.769531 117.710938 43.679688 117.84375 C 43.324219 118.222656 42.878906 118.558594 42.386719 118.761719 C 42.253906 118.828125 42.09375 118.894531 41.941406 118.9375 C 41.425781 119.117188 40.890625 119.183594 40.378906 119.160156 C 39.863281 119.160156 39.351563 119.050781 38.859375 118.847656 C 38.324219 118.625 37.808594 118.269531 37.429688 117.824219 C 37.027344 117.398438 36.761719 116.863281 36.582031 116.328125 C 36.316406 115.546875 36.226563 114.699219 36.226563 113.871094 C 36.246094 113.179688 36.316406 112.488281 36.539063 111.839844 C 36.714844 111.238281 37.007813 110.679688 37.429688 110.210938 C 37.789063 109.808594 38.234375 109.476563 38.726563 109.230469 C 39.304688 108.960938 39.953125 108.804688 40.578125 108.828125 C 40.824219 108.828125 41.070313 108.851563 41.316406 108.871094 C 41.515625 108.894531 41.738281 108.9375 41.941406 109.007813 Z M 54.863281 112.734375 L 56.648438 112.734375 C 56.648438 112.6875 56.625 112.644531 56.625 112.597656 C 56.582031 112.265625 56.515625 111.953125 56.378906 111.640625 C 56.3125 111.417969 56.179688 111.214844 56.023438 111.058594 C 55.867188 110.902344 55.6875 110.816406 55.488281 110.746094 C 55.285156 110.679688 55.085938 110.65625 54.863281 110.65625 L 54.839844 110.65625 C 54.574219 110.65625 54.328125 110.703125 54.105469 110.816406 C 53.949219 110.882813 53.792969 110.992188 53.679688 111.125 C 53.523438 111.304688 53.390625 111.507813 53.324219 111.707031 C 53.210938 111.929688 53.167969 112.175781 53.121094 112.421875 C 53.121094 112.511719 53.097656 112.621094 53.078125 112.734375 Z M 54.863281 108.695313 L 54.886719 108.695313 C 55.621094 108.695313 56.335938 108.761719 57.027344 108.984375 C 57.652344 109.183594 58.253906 109.496094 58.703125 109.964844 C 59.125 110.367188 59.4375 110.902344 59.640625 111.460938 C 59.953125 112.242188 60.085938 113.070313 60.109375 113.894531 C 60.128906 114.183594 60.128906 114.453125 60.128906 114.742188 L 53.03125 114.742188 C 53.054688 114.875 53.054688 115.03125 53.054688 115.167969 C 53.078125 115.433594 53.121094 115.703125 53.210938 115.96875 C 53.300781 116.195313 53.410156 116.417969 53.589844 116.617188 C 53.746094 116.796875 53.949219 116.929688 54.171875 117.019531 C 54.394531 117.109375 54.640625 117.132813 54.863281 117.132813 C 54.886719 117.132813 54.90625 117.132813 54.929688 117.132813 C 55.128906 117.132813 55.308594 117.109375 55.488281 117.0625 C 55.664063 117.019531 55.824219 116.953125 55.976563 116.863281 C 56.136719 116.75 56.269531 116.617188 56.359375 116.460938 C 56.449219 116.304688 56.515625 116.125 56.558594 115.949219 C 56.582031 115.859375 56.601563 115.769531 56.625 115.703125 L 60.0625 115.703125 C 60.0625 115.746094 60.0625 115.792969 60.0625 115.835938 C 60.039063 116.304688 59.816406 116.75 59.550781 117.152344 C 59.238281 117.621094 58.878906 118.023438 58.410156 118.289063 C 58.011719 118.582031 57.519531 118.761719 57.050781 118.894531 C 56.335938 119.09375 55.597656 119.160156 54.863281 119.140625 C 54.105469 119.160156 53.367188 119.074219 52.652344 118.847656 C 51.984375 118.625 51.359375 118.269531 50.867188 117.757813 C 50.421875 117.285156 50.109375 116.730469 49.90625 116.125 C 49.660156 115.390625 49.59375 114.585938 49.617188 113.804688 C 49.617188 113.070313 49.707031 112.355469 49.953125 111.683594 C 50.152344 111.105469 50.488281 110.570313 50.910156 110.121094 C 51.359375 109.675781 51.894531 109.320313 52.472656 109.09375 C 53.210938 108.78125 54.035156 108.695313 54.863281 108.695313 Z M 68.613281 114.25 C 68.34375 114.273438 68.097656 114.273438 67.832031 114.273438 C 67.5625 114.296875 67.292969 114.296875 67.050781 114.320313 C 66.914063 114.339844 66.78125 114.363281 66.648438 114.40625 C 66.445313 114.453125 66.246094 114.519531 66.066406 114.632813 C 65.867188 114.765625 65.6875 114.945313 65.597656 115.144531 C 65.507813 115.324219 65.488281 115.523438 65.488281 115.722656 C 65.488281 115.949219 65.53125 116.171875 65.644531 116.394531 C 65.6875 116.507813 65.753906 116.59375 65.84375 116.683594 C 65.976563 116.820313 66.15625 116.929688 66.335938 116.972656 C 66.46875 117.042969 66.625 117.0625 66.757813 117.0625 C 66.871094 117.0625 66.960938 117.0625 67.050781 117.0625 C 67.207031 117.042969 67.363281 116.996094 67.519531 116.929688 C 67.71875 116.839844 67.875 116.707031 68.03125 116.550781 C 68.1875 116.371094 68.300781 116.148438 68.390625 115.925781 C 68.5 115.636719 68.542969 115.324219 68.566406 115.011719 C 68.589844 114.765625 68.589844 114.519531 68.613281 114.25 Z M 67.050781 112.554688 C 67.25 112.53125 67.453125 112.53125 67.652344 112.53125 C 67.964844 112.53125 68.277344 112.53125 68.613281 112.554688 C 68.613281 112.445313 68.613281 112.355469 68.589844 112.242188 C 68.589844 112.199219 68.589844 112.132813 68.589844 112.085938 C 68.589844 111.886719 68.566406 111.683594 68.523438 111.484375 C 68.5 111.304688 68.433594 111.148438 68.34375 110.992188 C 68.253906 110.835938 68.121094 110.703125 67.988281 110.636719 C 67.808594 110.523438 67.585938 110.5 67.382813 110.5 C 67.273438 110.480469 67.160156 110.5 67.050781 110.523438 C 67.027344 110.523438 66.980469 110.523438 66.960938 110.546875 C 66.78125 110.589844 66.582031 110.679688 66.445313 110.816406 C 66.359375 110.902344 66.269531 110.992188 66.222656 111.105469 C 66.113281 111.28125 66.066406 111.484375 66.042969 111.664063 C 66.042969 111.773438 66.042969 111.886719 66.042969 111.996094 L 62.496094 111.996094 C 62.496094 111.886719 62.519531 111.773438 62.519531 111.664063 C 62.5625 111.238281 62.675781 110.816406 62.875 110.457031 C 63.097656 110.054688 63.433594 109.742188 63.8125 109.496094 C 64.304688 109.183594 64.839844 109.007813 65.375 108.894531 C 65.933594 108.761719 66.492188 108.695313 67.050781 108.695313 C 67.207031 108.671875 67.363281 108.671875 67.519531 108.695313 C 68.097656 108.695313 68.703125 108.761719 69.28125 108.871094 C 69.792969 108.984375 70.308594 109.164063 70.730469 109.476563 C 71.132813 109.71875 71.445313 110.078125 71.667969 110.480469 C 71.914063 110.925781 72.027344 111.4375 72.050781 111.953125 C 72.050781 112.0625 72.050781 112.199219 72.070313 112.308594 L 72.070313 117.042969 C 72.070313 117.199219 72.070313 117.355469 72.070313 117.511719 C 72.09375 117.800781 72.117188 118.113281 72.160156 118.402344 C 72.183594 118.582031 72.207031 118.761719 72.25 118.9375 L 68.703125 118.9375 C 68.703125 118.871094 68.679688 118.804688 68.679688 118.761719 C 68.65625 118.648438 68.65625 118.558594 68.632813 118.449219 C 68.632813 118.289063 68.613281 118.15625 68.613281 118 C 68.613281 117.84375 68.613281 117.6875 68.613281 117.511719 C 68.566406 117.578125 68.523438 117.621094 68.476563 117.6875 C 68.164063 118.113281 67.765625 118.492188 67.292969 118.714844 C 67.207031 118.761719 67.140625 118.804688 67.050781 118.847656 C 66.582031 119.050781 66.042969 119.117188 65.53125 119.117188 C 65.039063 119.140625 64.59375 119.09375 64.125 118.960938 C 63.703125 118.847656 63.253906 118.671875 62.921875 118.378906 C 62.585938 118.113281 62.316406 117.757813 62.140625 117.375 C 61.914063 116.90625 61.847656 116.394531 61.847656 115.902344 C 61.847656 115.480469 61.9375 115.054688 62.117188 114.675781 C 62.339844 114.183594 62.71875 113.761719 63.1875 113.46875 C 63.65625 113.15625 64.171875 112.980469 64.707031 112.84375 C 65.464844 112.644531 66.246094 112.578125 67.050781 112.554688 Z M 74.4375 115.722656 L 78.121094 115.722656 C 78.097656 115.8125 78.097656 115.882813 78.121094 115.96875 C 78.121094 116.105469 78.121094 116.261719 78.164063 116.394531 C 78.210938 116.550781 78.296875 116.730469 78.433594 116.863281 C 78.542969 116.972656 78.679688 117.0625 78.835938 117.132813 C 78.992188 117.199219 79.148438 117.21875 79.304688 117.21875 C 79.4375 117.242188 79.570313 117.21875 79.683594 117.199219 C 79.839844 117.152344 79.972656 117.085938 80.105469 116.996094 C 80.195313 116.90625 80.285156 116.820313 80.332031 116.707031 C 80.417969 116.574219 80.464844 116.4375 80.464844 116.304688 C 80.464844 116.238281 80.464844 116.148438 80.464844 116.082031 C 80.441406 115.949219 80.398438 115.8125 80.308594 115.703125 C 80.261719 115.636719 80.195313 115.570313 80.128906 115.523438 C 79.996094 115.410156 79.816406 115.34375 79.660156 115.277344 C 79.214844 115.097656 78.769531 115.011719 78.320313 114.898438 C 77.875 114.785156 77.429688 114.675781 76.980469 114.519531 C 76.582031 114.386719 76.179688 114.25 75.84375 114.007813 C 75.464844 113.78125 75.152344 113.449219 74.949219 113.070313 C 74.75 112.710938 74.660156 112.308594 74.660156 111.90625 C 74.636719 111.417969 74.75 110.902344 75.019531 110.5 C 75.242188 110.101563 75.574219 109.785156 75.976563 109.542969 C 76.3125 109.296875 76.691406 109.140625 77.09375 109.027344 C 77.785156 108.804688 78.523438 108.761719 79.234375 108.761719 C 79.773438 108.761719 80.285156 108.78125 80.820313 108.871094 C 81.335938 108.960938 81.824219 109.09375 82.273438 109.363281 C 82.671875 109.5625 83.03125 109.875 83.277344 110.234375 C 83.566406 110.636719 83.722656 111.105469 83.789063 111.574219 C 83.835938 111.730469 83.855469 111.90625 83.855469 112.085938 L 80.351563 112.085938 C 80.351563 111.972656 80.351563 111.863281 80.332031 111.75 C 80.332031 111.617188 80.308594 111.507813 80.285156 111.371094 C 80.242188 111.214844 80.171875 111.039063 80.039063 110.925781 C 79.949219 110.816406 79.792969 110.726563 79.636719 110.679688 C 79.460938 110.613281 79.28125 110.589844 79.101563 110.613281 C 78.992188 110.613281 78.878906 110.636719 78.769531 110.65625 C 78.609375 110.703125 78.476563 110.746094 78.386719 110.835938 C 78.296875 110.902344 78.230469 110.992188 78.1875 111.105469 C 78.121094 111.214844 78.097656 111.347656 78.097656 111.460938 C 78.097656 111.574219 78.097656 111.683594 78.144531 111.773438 C 78.1875 111.863281 78.230469 111.929688 78.277344 111.996094 C 78.410156 112.132813 78.566406 112.21875 78.746094 112.308594 C 79.148438 112.511719 79.570313 112.578125 79.996094 112.6875 C 80.441406 112.800781 80.910156 112.933594 81.355469 113.046875 C 81.648438 113.136719 81.9375 113.203125 82.226563 113.3125 C 82.449219 113.382813 82.671875 113.46875 82.875 113.582031 C 83.097656 113.738281 83.320313 113.917969 83.476563 114.117188 C 83.675781 114.363281 83.835938 114.632813 83.921875 114.921875 C 84.035156 115.257813 84.078125 115.589844 84.058594 115.949219 C 84.058594 116.417969 83.96875 116.863281 83.765625 117.265625 C 83.566406 117.6875 83.253906 118.046875 82.875 118.3125 C 82.449219 118.648438 81.9375 118.871094 81.421875 118.984375 C 80.640625 119.207031 79.859375 119.230469 79.058594 119.207031 C 78.542969 119.207031 78.03125 119.183594 77.519531 119.09375 C 76.9375 119.003906 76.355469 118.828125 75.84375 118.515625 C 75.464844 118.269531 75.105469 117.957031 74.882813 117.554688 C 74.660156 117.21875 74.527344 116.796875 74.480469 116.394531 C 74.4375 116.171875 74.4375 115.949219 74.4375 115.722656 Z M 99.992188 104.765625 L 99.992188 107.132813 C 99.90625 107.132813 99.816406 107.109375 99.726563 107.085938 C 99.636719 107.085938 99.570313 107.066406 99.503906 107.066406 C 99.324219 107.019531 99.125 107.019531 98.945313 107.019531 C 98.722656 107.019531 98.5 107.042969 98.296875 107.132813 C 98.140625 107.175781 97.984375 107.289063 97.871094 107.398438 C 97.761719 107.511719 97.671875 107.667969 97.628906 107.800781 C 97.539063 108.046875 97.515625 108.316406 97.515625 108.582031 C 97.515625 108.738281 97.515625 108.917969 97.515625 109.074219 L 99.882813 109.074219 L 99.882813 111.484375 L 97.515625 111.484375 L 97.515625 118.9375 L 93.921875 118.9375 L 93.921875 111.484375 L 91.980469 111.484375 L 91.980469 109.074219 L 93.921875 109.074219 C 93.921875 108.984375 93.921875 108.894531 93.921875 108.78125 C 93.902344 108.15625 93.902344 107.511719 94.054688 106.886719 C 94.144531 106.417969 94.367188 105.949219 94.703125 105.589844 C 94.972656 105.277344 95.328125 105.054688 95.730469 104.921875 C 96.421875 104.632813 97.203125 104.632813 97.960938 104.632813 C 98.117188 104.632813 98.253906 104.632813 98.386719 104.632813 C 98.699219 104.652344 98.988281 104.675781 99.300781 104.699219 C 99.523438 104.71875 99.769531 104.742188 99.992188 104.765625 Z M 121.800781 108.960938 L 121.800781 112.132813 C 121.710938 112.109375 121.601563 112.109375 121.511719 112.085938 C 121.441406 112.085938 121.378906 112.085938 121.308594 112.085938 C 121.175781 112.085938 121.0625 112.085938 120.953125 112.085938 C 120.683594 112.085938 120.417969 112.109375 120.148438 112.175781 C 119.835938 112.242188 119.523438 112.375 119.277344 112.578125 C 119.078125 112.734375 118.898438 112.933594 118.765625 113.15625 C 118.585938 113.46875 118.496094 113.804688 118.453125 114.140625 C 118.429688 114.339844 118.429688 114.542969 118.429688 114.742188 L 118.429688 118.9375 L 114.726563 118.9375 L 114.726563 111.148438 L 114.636719 109.027344 L 118.253906 109.027344 L 118.316406 111.082031 C 118.363281 110.96875 118.40625 110.835938 118.476563 110.726563 C 118.609375 110.457031 118.765625 110.1875 118.964844 109.964844 C 119.167969 109.742188 119.390625 109.542969 119.636719 109.40625 C 119.859375 109.253906 120.105469 109.164063 120.371094 109.09375 C 120.730469 109.007813 121.132813 108.960938 121.511719 108.960938 C 121.601563 108.960938 121.710938 108.960938 121.800781 108.960938 Z M 131.84375 118.9375 L 131.84375 104.699219 L 135.550781 104.699219 L 135.550781 118.9375 Z M 138.382813 118.9375 L 138.382813 109.027344 L 142.179688 109.027344 L 142.179688 118.9375 Z M 138.382813 107.378906 L 138.382813 104.742188 L 142.179688 104.742188 L 142.179688 107.378906 Z M 152.109375 104.765625 L 152.109375 107.132813 C 152.023438 107.132813 151.910156 107.109375 151.820313 107.085938 C 151.753906 107.085938 151.6875 107.066406 151.597656 107.066406 C 151.417969 107.019531 151.242188 107.019531 151.0625 107.019531 C 150.839844 107.019531 150.617188 107.042969 150.414063 107.132813 C 150.257813 107.175781 150.101563 107.289063 149.992188 107.398438 C 149.878906 107.511719 149.789063 107.667969 149.746094 107.800781 C 149.632813 108.046875 149.632813 108.316406 149.632813 108.582031 C 149.609375 108.738281 149.609375 108.917969 149.609375 109.074219 L 152 109.074219 L 152 111.484375 L 149.609375 111.484375 L 149.609375 118.9375 L 146.019531 118.9375 L 146.019531 111.484375 L 144.074219 111.484375 L 144.074219 109.074219 L 146.019531 109.074219 C 146.019531 108.984375 145.996094 108.894531 145.996094 108.78125 C 145.996094 108.15625 145.972656 107.511719 146.152344 106.886719 C 146.242188 106.417969 146.441406 105.949219 146.777344 105.589844 C 147.066406 105.277344 147.425781 105.054688 147.824219 104.921875 C 148.539063 104.632813 149.320313 104.632813 150.078125 104.632813 C 150.214844 104.632813 150.347656 104.632813 150.503906 104.632813 C 150.792969 104.652344 151.105469 104.675781 151.417969 104.699219 C 151.644531 104.71875 151.886719 104.742188 152.109375 104.765625 Z M 158.136719 112.734375 L 159.902344 112.734375 C 159.902344 112.6875 159.902344 112.644531 159.902344 112.597656 C 159.855469 112.265625 159.789063 111.953125 159.65625 111.640625 C 159.566406 111.417969 159.453125 111.214844 159.277344 111.058594 C 159.140625 110.902344 158.941406 110.816406 158.738281 110.746094 C 158.539063 110.679688 158.339844 110.65625 158.136719 110.65625 L 158.09375 110.65625 C 157.847656 110.65625 157.601563 110.703125 157.378906 110.816406 C 157.199219 110.882813 157.066406 110.992188 156.933594 111.125 C 156.777344 111.304688 156.664063 111.507813 156.574219 111.707031 C 156.484375 111.929688 156.417969 112.175781 156.394531 112.421875 C 156.375 112.511719 156.375 112.621094 156.351563 112.734375 Z M 158.136719 108.695313 L 158.160156 108.695313 C 158.875 108.695313 159.589844 108.761719 160.28125 108.984375 C 160.90625 109.183594 161.507813 109.496094 161.953125 109.964844 C 162.398438 110.367188 162.691406 110.902344 162.914063 111.460938 C 163.226563 112.242188 163.339844 113.070313 163.382813 113.894531 C 163.382813 114.183594 163.40625 114.453125 163.40625 114.742188 L 156.308594 114.742188 C 156.308594 114.875 156.328125 115.03125 156.328125 115.167969 C 156.351563 115.433594 156.375 115.703125 156.464844 115.96875 C 156.554688 116.195313 156.6875 116.417969 156.863281 116.617188 C 157.019531 116.796875 157.222656 116.929688 157.445313 117.019531 C 157.644531 117.109375 157.890625 117.132813 158.136719 117.132813 C 158.160156 117.132813 158.183594 117.132813 158.203125 117.132813 C 158.382813 117.132813 158.5625 117.109375 158.738281 117.0625 C 158.917969 117.019531 159.097656 116.953125 159.253906 116.863281 C 159.386719 116.75 159.519531 116.617188 159.609375 116.460938 C 159.722656 116.304688 159.789063 116.125 159.835938 115.949219 C 159.855469 115.859375 159.878906 115.769531 159.878906 115.703125 L 163.339844 115.703125 C 163.339844 115.746094 163.339844 115.792969 163.339844 115.835938 C 163.292969 116.304688 163.09375 116.75 162.800781 117.152344 C 162.511719 117.621094 162.132813 118.023438 161.6875 118.289063 C 161.261719 118.582031 160.792969 118.761719 160.304688 118.894531 C 159.589844 119.09375 158.875 119.160156 158.136719 119.140625 L 158.113281 119.140625 C 157.378906 119.160156 156.621094 119.074219 155.929688 118.847656 C 155.257813 118.625 154.609375 118.269531 154.140625 117.757813 C 153.695313 117.285156 153.359375 116.730469 153.183594 116.125 C 152.914063 115.390625 152.847656 114.585938 152.871094 113.804688 C 152.890625 113.070313 152.960938 112.355469 153.226563 111.683594 C 153.429688 111.105469 153.761719 110.570313 154.1875 110.121094 C 154.609375 109.675781 155.148438 109.320313 155.726563 109.09375 C 156.484375 108.78125 157.3125 108.695313 158.136719 108.695313 Z M 106.511719 119.160156 C 106.378906 119.160156 106.242188 119.160156 106.109375 119.160156 C 105.328125 119.117188 104.523438 119.003906 103.8125 118.714844 C 103.1875 118.492188 102.605469 118.136719 102.160156 117.6875 C 101.714844 117.265625 101.378906 116.730469 101.152344 116.148438 C 100.886719 115.480469 100.773438 114.765625 100.753906 114.027344 C 100.753906 113.382813 100.820313 112.734375 101.019531 112.132813 C 101.222656 111.417969 101.601563 110.746094 102.136719 110.234375 C 102.628906 109.742188 103.253906 109.386719 103.898438 109.140625 C 104.746094 108.828125 105.640625 108.714844 106.511719 108.714844 L 106.554688 108.714844 C 107.316406 108.714844 108.074219 108.804688 108.789063 109.027344 C 109.433594 109.207031 110.058594 109.496094 110.574219 109.921875 C 111.042969 110.300781 111.445313 110.792969 111.710938 111.347656 C 112.089844 112.109375 112.246094 112.980469 112.269531 113.828125 C 112.292969 114.519531 112.203125 115.1875 111.980469 115.859375 C 111.710938 116.640625 111.265625 117.355469 110.640625 117.890625 C 110.105469 118.359375 109.457031 118.671875 108.765625 118.871094 C 108.050781 119.09375 107.269531 119.183594 106.511719 119.160156 "/>
</g>
</svg>
