<?xml version="1.0" encoding="UTF-8"?>
<svg xmlns="http://www.w3.org/2000/svg" xmlns:xlink="http://www.w3.org/1999/xlink" width="306.3pt" height="396.2pt" viewBox="0 0 306.3 396.2" version="1.1">
<defs>
<clipPath id="clip1">
  <path d="M 93 372 L 115 372 L 115 396.199219 L 93 396.199219 Z M 93 372 "/>
</clipPath>
<clipPath id="clip2">
  <path d="M 128 372 L 154 372 L 154 396.199219 L 128 396.199219 Z M 128 372 "/>
</clipPath>
<clipPath id="clip3">
  <path d="M 166 372 L 190 372 L 190 396.199219 L 166 396.199219 Z M 166 372 "/>
</clipPath>
<clipPath id="clip4">
  <path d="M 285 372 L 306.300781 372 L 306.300781 396.199219 L 285 396.199219 Z M 285 372 "/>
</clipPath>
</defs>
<g id="surface1">
<path style=" stroke:none;fill-rule:evenodd;fill:rgb(0%,0%,0%);fill-opacity:1;" d="M 0.078125 372.855469 L 6.792969 372.855469 L 9.210938 385.667969 L 12.753906 372.855469 L 19.445313 372.855469 L 22.992188 385.648438 L 25.414063 372.855469 L 32.09375 372.855469 L 27.046875 395.738281 L 20.117188 395.738281 L 16.105469 381.332031 L 12.105469 395.738281 L 5.167969 395.738281 Z M 0.078125 372.855469 "/>
<path style=" stroke:none;fill-rule:evenodd;fill:rgb(0%,0%,0%);fill-opacity:1;" d="M 34.699219 395.738281 L 41.785156 395.738281 L 41.785156 372.855469 L 34.699219 372.855469 Z M 34.699219 395.738281 "/>
<path style=" stroke:none;fill-rule:evenodd;fill:rgb(0%,0%,0%);fill-opacity:1;" d="M 46.953125 395.738281 L 46.953125 372.855469 L 58.738281 372.855469 C 60.921875 372.855469 62.59375 373.042969 63.746094 373.417969 C 64.90625 373.792969 65.835938 374.488281 66.539063 375.5 C 67.253906 376.515625 67.605469 377.75 67.605469 379.207031 C 67.605469 380.476563 67.335938 381.574219 66.789063 382.496094 C 66.253906 383.414063 65.507813 384.160156 64.5625 384.734375 C 63.957031 385.097656 63.128906 385.402344 62.078125 385.640625 C 62.914063 385.921875 63.53125 386.203125 63.914063 386.484375 C 64.179688 386.671875 64.554688 387.070313 65.046875 387.6875 C 65.539063 388.300781 65.871094 388.773438 66.039063 389.109375 L 69.464844 395.738281 L 61.472656 395.738281 L 57.695313 388.746094 C 57.214844 387.839844 56.789063 387.253906 56.414063 386.980469 C 55.902344 386.628906 55.328125 386.453125 54.679688 386.453125 L 54.058594 386.453125 L 54.058594 395.738281 Z M 54.058594 382.128906 L 57.039063 382.128906 C 57.359375 382.128906 57.984375 382.023438 58.910156 381.816406 C 59.378906 381.722656 59.761719 381.484375 60.058594 381.097656 C 60.355469 380.710938 60.503906 380.269531 60.503906 379.769531 C 60.503906 379.03125 60.269531 378.464844 59.796875 378.070313 C 59.332031 377.671875 58.453125 377.476563 57.164063 377.476563 L 54.058594 377.476563 Z M 54.058594 382.128906 "/>
<path style=" stroke:none;fill-rule:evenodd;fill:rgb(0%,0%,0%);fill-opacity:1;" d="M 71.734375 372.855469 L 90.683594 372.855469 L 90.683594 377.742188 L 78.820313 377.742188 L 78.820313 381.378906 L 89.824219 381.378906 L 89.824219 386.046875 L 78.820313 386.046875 L 78.820313 390.558594 L 91.027344 390.558594 L 91.027344 395.738281 L 71.734375 395.738281 Z M 71.734375 372.855469 "/>
<g clip-path="url(#clip1)" clip-rule="nonzero">
<path style=" stroke:none;fill-rule:evenodd;fill:rgb(0%,0%,0%);fill-opacity:1;" d="M 93.621094 388.167969 L 100.347656 387.746094 C 100.492188 388.839844 100.789063 389.671875 101.238281 390.246094 C 101.964844 391.171875 103.007813 391.632813 104.359375 391.632813 C 105.367188 391.632813 106.144531 391.398438 106.691406 390.921875 C 107.238281 390.449219 107.511719 389.902344 107.511719 389.277344 C 107.511719 388.683594 107.253906 388.152344 106.730469 387.683594 C 106.210938 387.214844 105.003906 386.773438 103.109375 386.359375 C 100.007813 385.660156 97.792969 384.734375 96.476563 383.578125 C 95.144531 382.425781 94.476563 380.953125 94.476563 379.160156 C 94.476563 377.984375 94.820313 376.875 95.496094 375.828125 C 96.183594 374.785156 97.207031 373.960938 98.574219 373.363281 C 99.945313 372.765625 101.820313 372.464844 104.203125 372.464844 C 107.128906 372.464844 109.355469 373.007813 110.890625 374.097656 C 112.425781 375.183594 113.339844 376.914063 113.632813 379.285156 L 106.964844 379.675781 C 106.789063 378.648438 106.414063 377.898438 105.851563 377.429688 C 105.28125 376.960938 104.496094 376.726563 103.496094 376.726563 C 102.679688 376.726563 102.058594 376.902344 101.644531 377.25 C 101.226563 377.597656 101.019531 378.023438 101.019531 378.523438 C 101.019531 378.886719 101.191406 379.214844 101.535156 379.503906 C 101.867188 379.808594 102.65625 380.089844 103.90625 380.347656 C 106.996094 381.015625 109.210938 381.6875 110.546875 382.371094 C 111.886719 383.050781 112.859375 383.898438 113.46875 384.90625 C 114.074219 385.914063 114.378906 387.042969 114.378906 388.292969 C 114.378906 389.761719 113.972656 391.113281 113.164063 392.351563 C 112.351563 393.589844 111.21875 394.53125 109.761719 395.167969 C 108.304688 395.808594 106.464844 396.128906 104.246094 396.128906 C 100.359375 396.128906 97.664063 395.378906 96.164063 393.882813 C 94.664063 392.382813 93.816406 390.480469 93.621094 388.167969 Z M 93.621094 388.167969 "/>
</g>
<g clip-path="url(#clip2)" clip-rule="nonzero">
<path style=" stroke:none;fill-rule:evenodd;fill:rgb(0%,0%,0%);fill-opacity:1;" d="M 146.675781 384.609375 L 151.640625 385.71875 C 151.378906 386.632813 151.132813 387.367188 150.890625 387.917969 C 150.652344 388.46875 150.3125 389.121094 149.878906 389.871094 L 152.265625 391.507813 C 152.554688 391.695313 152.929688 391.921875 153.390625 392.179688 L 149.96875 396.113281 C 149.347656 395.78125 148.699219 395.394531 148.027344 394.957031 C 147.355469 394.523438 146.753906 394.148438 146.222656 393.835938 C 145.121094 394.5625 144.019531 395.09375 142.914063 395.425781 C 141.386719 395.886719 139.648438 396.113281 137.703125 396.113281 C 134.652344 396.113281 132.382813 395.480469 130.894531 394.210938 C 129.40625 392.941406 128.664063 391.398438 128.664063 389.589844 C 128.664063 388.289063 129.101563 387.058594 129.976563 385.898438 C 130.847656 384.738281 132.28125 383.757813 134.265625 382.953125 C 133.433594 381.945313 132.863281 381.070313 132.550781 380.324219 C 132.238281 379.582031 132.078125 378.824219 132.078125 378.054688 C 132.078125 376.429688 132.703125 375.09375 133.941406 374.042969 C 135.179688 372.992188 137.054688 372.464844 139.574219 372.464844 C 142.144531 372.464844 144.035156 372.964844 145.242188 373.964844 C 146.449219 374.964844 147.050781 376.160156 147.050781 377.554688 C 147.050781 378.335938 146.867188 379.082031 146.496094 379.800781 C 146.128906 380.519531 145.683594 381.101563 145.164063 381.550781 C 144.640625 381.996094 143.710938 382.664063 142.367188 383.546875 C 143.480469 384.660156 144.640625 385.695313 145.851563 386.65625 C 146.171875 386.007813 146.449219 385.328125 146.675781 384.609375 Z M 139.371094 380.597656 C 140.195313 380.152344 140.828125 379.664063 141.277344 379.136719 C 141.722656 378.613281 141.945313 378.117188 141.945313 377.648438 C 141.945313 377.160156 141.761719 376.746094 141.386719 376.40625 C 141.011719 376.070313 140.496094 375.898438 139.839844 375.898438 C 139.195313 375.898438 138.664063 376.085938 138.261719 376.460938 C 137.859375 376.835938 137.65625 377.277344 137.65625 377.789063 C 137.65625 378.433594 138.226563 379.371094 139.371094 380.597656 Z M 137.109375 386.15625 C 136.234375 386.769531 135.652344 387.292969 135.367188 387.730469 C 135.078125 388.167969 134.9375 388.632813 134.9375 389.121094 C 134.9375 389.878906 135.265625 390.558594 135.921875 391.148438 C 136.578125 391.742188 137.429688 392.039063 138.480469 392.039063 C 139.617188 392.039063 140.890625 391.597656 142.304688 390.714844 C 140.953125 389.671875 139.222656 388.152344 137.109375 386.15625 Z M 137.109375 386.15625 "/>
</g>
<g clip-path="url(#clip3)" clip-rule="nonzero">
<path style=" stroke:none;fill-rule:evenodd;fill:rgb(0%,0%,0%);fill-opacity:1;" d="M 182.945313 386.375 L 189.140625 388.246094 C 188.726563 389.984375 188.070313 391.4375 187.175781 392.601563 C 186.28125 393.765625 185.164063 394.648438 183.84375 395.238281 C 182.515625 395.832031 180.828125 396.128906 178.777344 396.128906 C 176.289063 396.128906 174.257813 395.769531 172.683594 395.046875 C 171.105469 394.324219 169.746094 393.050781 168.601563 391.230469 C 167.453125 389.410156 166.882813 387.082031 166.882813 384.242188 C 166.882813 380.457031 167.890625 377.546875 169.902344 375.515625 C 171.914063 373.480469 174.765625 372.464844 178.449219 372.464844 C 181.328125 372.464844 183.597656 373.046875 185.246094 374.214844 C 186.898438 375.378906 188.121094 377.167969 188.925781 379.582031 L 182.679688 380.972656 C 182.460938 380.277344 182.234375 379.765625 181.992188 379.441406 C 181.597656 378.902344 181.113281 378.484375 180.539063 378.195313 C 179.96875 377.902344 179.328125 377.757813 178.621094 377.757813 C 177.019531 377.757813 175.789063 378.402344 174.9375 379.691406 C 174.289063 380.648438 173.96875 382.148438 173.96875 384.195313 C 173.96875 386.730469 174.355469 388.46875 175.121094 389.410156 C 175.894531 390.351563 176.976563 390.820313 178.371094 390.820313 C 179.722656 390.820313 180.746094 390.441406 181.4375 389.683594 C 182.132813 388.921875 182.632813 387.820313 182.945313 386.375 Z M 182.945313 386.375 "/>
</g>
<path style=" stroke:none;fill-rule:evenodd;fill:rgb(0%,0%,0%);fill-opacity:1;" d="M 206.664063 391.960938 L 198.640625 391.960938 L 197.523438 395.738281 L 190.304688 395.738281 L 198.90625 372.855469 L 206.617188 372.855469 L 215.214844 395.738281 L 207.8125 395.738281 Z M 205.199219 387.011719 L 202.675781 378.789063 L 200.175781 387.011719 Z M 205.199219 387.011719 "/>
<path style=" stroke:none;fill-rule:evenodd;fill:rgb(0%,0%,0%);fill-opacity:1;" d="M 217.496094 372.855469 L 230.738281 372.855469 C 232.945313 372.855469 234.636719 373.402344 235.820313 374.496094 C 236.996094 375.585938 237.589844 376.941406 237.589844 378.554688 C 237.589844 379.90625 237.164063 381.066406 236.328125 382.035156 C 235.765625 382.679688 234.941406 383.1875 233.859375 383.5625 C 235.503906 383.960938 236.714844 384.636719 237.488281 385.601563 C 238.265625 386.5625 238.652344 387.773438 238.652344 389.230469 C 238.652344 390.417969 238.378906 391.484375 237.824219 392.429688 C 237.273438 393.378906 236.519531 394.125 235.5625 394.679688 C 234.96875 395.019531 234.074219 395.269531 232.878906 395.425781 C 231.285156 395.636719 230.230469 395.738281 229.703125 395.738281 L 217.496094 395.738281 Z M 224.636719 381.832031 L 227.710938 381.832031 C 228.8125 381.832031 229.578125 381.640625 230.011719 381.261719 C 230.445313 380.882813 230.660156 380.332031 230.660156 379.613281 C 230.660156 378.949219 230.445313 378.429688 230.011719 378.054688 C 229.578125 377.679688 228.828125 377.492188 227.757813 377.492188 L 224.636719 377.492188 Z M 224.636719 390.820313 L 228.242188 390.820313 C 229.453125 390.820313 230.316406 390.605469 230.816406 390.175781 C 231.316406 389.742188 231.566406 389.164063 231.566406 388.433594 C 231.566406 387.757813 231.320313 387.214844 230.824219 386.804688 C 230.328125 386.390625 229.464844 386.1875 228.226563 386.1875 L 224.636719 386.1875 Z M 224.636719 390.820313 "/>
<path style=" stroke:none;fill-rule:evenodd;fill:rgb(0%,0%,0%);fill-opacity:1;" d="M 242.371094 372.855469 L 249.445313 372.855469 L 249.445313 390.105469 L 260.480469 390.105469 L 260.480469 395.738281 L 242.371094 395.738281 Z M 242.371094 372.855469 "/>
<path style=" stroke:none;fill-rule:evenodd;fill:rgb(0%,0%,0%);fill-opacity:1;" d="M 263.699219 372.855469 L 282.648438 372.855469 L 282.648438 377.742188 L 270.785156 377.742188 L 270.785156 381.378906 L 281.789063 381.378906 L 281.789063 386.046875 L 270.785156 386.046875 L 270.785156 390.558594 L 282.992188 390.558594 L 282.992188 395.738281 L 263.699219 395.738281 Z M 263.699219 372.855469 "/>
<g clip-path="url(#clip4)" clip-rule="nonzero">
<path style=" stroke:none;fill-rule:evenodd;fill:rgb(0%,0%,0%);fill-opacity:1;" d="M 285.585938 388.167969 L 292.3125 387.746094 C 292.460938 388.839844 292.757813 389.671875 293.203125 390.246094 C 293.933594 391.171875 294.972656 391.632813 296.324219 391.632813 C 297.335938 391.632813 298.113281 391.398438 298.660156 390.921875 C 299.203125 390.449219 299.480469 389.902344 299.480469 389.277344 C 299.480469 388.683594 299.21875 388.152344 298.699219 387.683594 C 298.179688 387.214844 296.972656 386.773438 295.078125 386.359375 C 291.976563 385.660156 289.765625 384.734375 288.441406 383.578125 C 287.109375 382.425781 286.445313 380.953125 286.445313 379.160156 C 286.445313 377.984375 286.785156 376.875 287.46875 375.828125 C 288.148438 374.785156 289.175781 373.960938 290.539063 373.363281 C 291.910156 372.765625 293.785156 372.464844 296.164063 372.464844 C 299.09375 372.464844 301.324219 373.007813 302.859375 374.097656 C 304.394531 375.183594 305.308594 376.914063 305.597656 379.285156 L 298.933594 379.675781 C 298.757813 378.648438 298.382813 377.898438 297.816406 377.429688 C 297.246094 376.960938 296.464844 376.726563 295.46875 376.726563 C 294.644531 376.726563 294.027344 376.902344 293.609375 377.25 C 293.195313 377.597656 292.984375 378.023438 292.984375 378.523438 C 292.984375 378.886719 293.15625 379.214844 293.496094 379.503906 C 293.828125 379.808594 294.621094 380.089844 295.871094 380.347656 C 298.964844 381.015625 301.179688 381.6875 302.515625 382.371094 C 303.851563 383.050781 304.824219 383.898438 305.433594 384.90625 C 306.039063 385.914063 306.347656 387.042969 306.347656 388.292969 C 306.347656 389.761719 305.941406 391.113281 305.128906 392.351563 C 304.316406 393.589844 303.183594 394.53125 301.726563 395.167969 C 300.269531 395.808594 298.433594 396.128906 296.214844 396.128906 C 292.324219 396.128906 289.628906 395.378906 288.132813 393.882813 C 286.632813 392.382813 285.785156 390.480469 285.585938 388.167969 Z M 285.585938 388.167969 "/>
</g>
<path style=" stroke:none;fill-rule:evenodd;fill:rgb(86.71875%,16.868591%,10.984802%);fill-opacity:1;" d="M 94.914063 123.457031 L 94.914063 136.046875 L 94.941406 136.046875 C 96.113281 152.519531 120.527344 152.519531 121.699219 136.046875 L 121.730469 136.046875 L 121.730469 118.945313 L 114.191406 118.945313 L 114.191406 129.414063 C 114.058594 129.304688 114.058594 129.304688 114.058594 129.304688 C 111.789063 135.113281 104.734375 135.121094 102.449219 129.335938 L 102.449219 74.3125 L 94.914063 74.3125 Z M 182.605469 99.257813 L 182.605469 86.667969 L 182.578125 86.667969 C 181.402344 70.195313 156.992188 70.195313 155.816406 86.667969 L 155.789063 86.667969 L 155.789063 136.046875 L 155.816406 136.046875 C 156.992188 152.519531 181.402344 152.519531 182.578125 136.046875 L 182.605469 136.046875 L 182.605469 118.945313 L 175.066406 118.945313 L 175.066406 129.414063 C 174.9375 129.304688 174.933594 129.304688 174.933594 129.304688 C 172.664063 135.113281 165.613281 135.121094 163.328125 129.335938 L 163.328125 93.304688 C 163.453125 93.410156 163.460938 93.414063 163.460938 93.414063 C 165.726563 87.605469 172.78125 87.59375 175.066406 93.378906 L 175.066406 103.625 L 182.605469 103.625 Z M 206.660156 99.257813 L 206.660156 111.390625 L 194.914063 111.390625 L 194.914063 93.304688 C 195.050781 93.410156 195.050781 93.414063 195.050781 93.414063 C 197.320313 87.605469 204.371094 87.59375 206.660156 93.378906 Z M 206.660156 116.808594 L 206.660156 148.402344 L 214.195313 148.402344 L 214.195313 86.667969 L 214.164063 86.667969 C 212.992188 70.195313 188.578125 70.195313 187.410156 86.667969 L 187.378906 86.667969 L 187.378906 148.402344 L 194.914063 148.402344 L 194.914063 116.808594 Z M 149.710938 107.554688 L 149.742188 107.554688 L 149.742188 74.3125 L 142.203125 74.3125 L 142.203125 100.921875 C 142.070313 100.8125 142.070313 100.8125 142.070313 100.8125 C 139.804688 106.621094 132.746094 106.628906 130.460938 100.84375 L 130.460938 74.3125 L 122.925781 74.3125 L 122.925781 107.554688 L 122.953125 107.554688 C 123.425781 114.152344 127.621094 118.109375 132.566406 119.421875 L 132.566406 148.402344 L 140.101563 148.402344 L 140.101563 119.421875 C 145.039063 118.109375 149.242188 114.152344 149.710938 107.554688 Z M 82.28125 128.621094 L 82.28125 129.414063 C 82.148438 129.304688 82.144531 129.304688 82.144531 129.304688 C 79.878906 135.113281 72.824219 135.121094 70.539063 129.335938 L 70.539063 93.304688 C 70.667969 93.410156 70.667969 93.414063 70.667969 93.414063 C 72.9375 87.605469 79.996094 87.59375 82.28125 93.378906 Z M 89.789063 136.046875 L 89.816406 136.046875 L 89.816406 86.667969 L 89.789063 86.667969 C 88.613281 70.195313 64.203125 70.195313 63.027344 86.667969 L 62.996094 86.667969 L 62.996094 136.046875 L 63.027344 136.046875 C 64.203125 152.519531 88.613281 152.519531 89.789063 136.046875 Z M 238.210938 126.882813 L 238.210938 129.414063 C 238.078125 129.304688 238.074219 129.304688 238.074219 129.304688 C 235.808594 135.113281 228.753906 135.121094 226.46875 129.335938 L 226.46875 93.304688 C 226.601563 93.410156 226.601563 93.414063 226.601563 93.414063 C 228.871094 87.605469 235.925781 87.59375 238.210938 93.378906 L 238.210938 107.273438 C 238.101563 107.183594 238.199219 109.996094 236.777344 111.390625 L 227.578125 111.390625 L 227.578125 116.808594 L 237.027344 116.808594 C 238.1875 118.257813 238.109375 121.007813 238.210938 120.925781 Z M 245.71875 136.046875 L 245.746094 136.046875 L 245.746094 122.121094 L 245.71875 122.121094 C 245.4375 118.1875 244.914063 115.191406 242.914063 113.464844 C 244.605469 112 245.46875 109.566406 245.71875 106.078125 L 245.746094 106.078125 L 245.746094 86.667969 L 245.71875 86.667969 C 244.546875 70.195313 220.132813 70.195313 218.960938 86.667969 L 218.929688 86.667969 L 218.929688 136.046875 L 218.960938 136.046875 C 220.132813 152.519531 244.546875 152.519531 245.71875 136.046875 Z M 48.929688 113.878906 L 48.929688 115.625 C 48.792969 115.515625 48.792969 115.515625 48.792969 115.515625 C 46.527344 121.324219 39.472656 121.335938 37.1875 115.546875 L 37.1875 93.304688 C 37.320313 93.410156 37.324219 93.414063 37.324219 93.414063 C 39.589844 87.605469 46.644531 87.59375 48.929688 93.378906 Z M 56.4375 122.257813 L 56.46875 122.257813 L 56.46875 86.667969 L 56.4375 86.667969 C 55.265625 70.195313 30.851563 70.195313 29.679688 86.667969 L 29.652344 86.667969 L 29.652344 148.402344 L 37.1875 148.402344 L 37.1875 133.386719 C 44.839844 136.804688 55.664063 133.09375 56.4375 122.257813 Z M 56.4375 122.257813 "/>
<path style=" stroke:none;fill-rule:evenodd;fill:rgb(86.71875%,16.868591%,10.984802%);fill-opacity:1;" d="M 137.828125 -0.0195313 C 153.71875 -0.0195313 166.59375 12.855469 166.59375 28.742188 C 166.59375 44.625 153.71875 57.5 137.828125 57.5 C 121.949219 57.5 109.070313 44.625 109.070313 28.742188 C 109.070313 12.855469 121.949219 -0.0195313 137.828125 -0.0195313 Z M 137.828125 -0.0195313 "/>
<path style=" stroke:none;fill-rule:evenodd;fill:rgb(100%,100%,100%);fill-opacity:1;" d="M 145.339844 16.9375 C 144.035156 16.171875 143.597656 14.492188 144.363281 13.1875 C 145.128906 11.882813 146.804688 11.445313 148.109375 12.210938 C 151.214844 14.039063 153.710938 16.609375 155.429688 19.609375 C 157.152344 22.628906 158.101563 26.082031 158.101563 29.667969 C 158.101563 35.265625 155.835938 40.335938 152.164063 44.003906 C 148.496094 47.671875 143.429688 49.941406 137.828125 49.941406 C 132.234375 49.941406 127.164063 47.671875 123.496094 44.003906 C 119.828125 40.335938 117.5625 35.265625 117.5625 29.667969 C 117.5625 26.019531 118.554688 22.5 120.347656 19.433594 C 122.136719 16.378906 124.71875 13.789063 127.90625 12 C 129.230469 11.257813 130.902344 11.730469 131.644531 13.050781 C 132.386719 14.375 131.914063 16.046875 130.59375 16.789063 C 128.257813 18.101563 126.371094 19.984375 125.074219 22.207031 C 123.777344 24.417969 123.0625 26.988281 123.0625 29.667969 C 123.0625 33.75 124.714844 37.441406 127.386719 40.113281 C 130.058594 42.789063 133.753906 44.441406 137.828125 44.441406 C 141.910156 44.441406 145.605469 42.789063 148.277344 40.113281 C 150.949219 37.441406 152.605469 33.75 152.605469 29.667969 C 152.605469 27.050781 151.914063 24.53125 150.660156 22.339844 C 149.398438 20.132813 147.578125 18.257813 145.339844 16.9375 Z M 135.175781 9.164063 C 135.175781 7.648438 136.40625 6.414063 137.925781 6.414063 C 139.441406 6.414063 140.675781 7.648438 140.675781 9.164063 L 140.675781 32.039063 C 140.675781 33.558594 139.441406 34.789063 137.925781 34.789063 C 136.40625 34.789063 135.175781 33.558594 135.175781 32.039063 Z M 135.175781 9.164063 "/>
</g>
</svg>
