<svg id="Layer_1" data-name="Layer 1" xmlns="http://www.w3.org/2000/svg" viewBox="0 0 425.2 425.2"><defs><style>.cls-1{fill:#9b9b9b;}.cls-2{fill:#1c4b98;fill-rule:evenodd;}</style></defs><path class="cls-1" d="M176.06,221.94h-2.67v-1.88h2.67Zm-2.67.75h2.67v7h-2.67Z"/><path class="cls-1" d="M184.47,229.71h-2.58v-.77h0l-.28.33a1.54,1.54,0,0,1-.39.3,1.92,1.92,0,0,1-.56.22,3.29,3.29,0,0,1-.83.09,2.45,2.45,0,0,1-1.29-.33,2.91,2.91,0,0,1-.92-.86,3.86,3.86,0,0,1-.55-1.2,5,5,0,0,1-.18-1.32,6.15,6.15,0,0,1,.13-1.27,3.34,3.34,0,0,1,.48-1.18,2.59,2.59,0,0,1,.91-.86,2.84,2.84,0,0,1,1.46-.34,2.39,2.39,0,0,1,1.11.25,2.26,2.26,0,0,1,.81.69h0v-3.4h2.67Zm-2.58-3.52a4.4,4.4,0,0,0,0-.62,1.88,1.88,0,0,0-.19-.55,1.23,1.23,0,0,0-.35-.4,1.05,1.05,0,0,0-.59-.16,1,1,0,0,0-.59.16,1.16,1.16,0,0,0-.36.4,1.62,1.62,0,0,0-.18.55,4.44,4.44,0,0,0-.05.62,4.21,4.21,0,0,0,.05.62,1.6,1.6,0,0,0,.18.56,1.1,1.1,0,0,0,.36.41,1,1,0,0,0,.59.16,1.05,1.05,0,0,0,.59-.16,1.18,1.18,0,0,0,.35-.41,1.85,1.85,0,0,0,.19-.56A4.21,4.21,0,0,0,181.89,226.19Z"/><path class="cls-1" d="M187.76,226.8a1.58,1.58,0,0,0,.39,1,1.26,1.26,0,0,0,1,.38,1.83,1.83,0,0,0,.64-.13.87.87,0,0,0,.48-.37h2.49a2.9,2.9,0,0,1-.57,1,3.1,3.1,0,0,1-.84.69,4.1,4.1,0,0,1-1,.41,5,5,0,0,1-1.16.13,4.9,4.9,0,0,1-1.56-.24,3.57,3.57,0,0,1-1.25-.71,3.22,3.22,0,0,1-.82-1.15,3.81,3.81,0,0,1-.3-1.56,4,4,0,0,1,.26-1.44,3.67,3.67,0,0,1,.75-1.17,3.53,3.53,0,0,1,1.17-.8,3.92,3.92,0,0,1,1.52-.29,5.08,5.08,0,0,1,1.8.28,3,3,0,0,1,1.24.83,3.37,3.37,0,0,1,.72,1.35,6.7,6.7,0,0,1,.23,1.82Zm2.56-1.39a1.16,1.16,0,0,0-.33-.83,1.12,1.12,0,0,0-.84-.35,1.39,1.39,0,0,0-1,.31,1.44,1.44,0,0,0-.43.87Z"/><path class="cls-1" d="M200.41,228.14a7.65,7.65,0,0,0,.05.81,1.6,1.6,0,0,0,.28.76H198a1.54,1.54,0,0,1-.08-.34,1.27,1.27,0,0,1,0-.33h0a2.2,2.2,0,0,1-1,.67,4.64,4.64,0,0,1-1.24.17,3.71,3.71,0,0,1-1-.12,2,2,0,0,1-.78-.39,1.75,1.75,0,0,1-.54-.66,2.12,2.12,0,0,1-.19-1,2,2,0,0,1,.19-.93,2,2,0,0,1,.53-.62,2.65,2.65,0,0,1,.75-.38,8.33,8.33,0,0,1,.86-.22l.86-.13c.29,0,.54-.07.77-.11a2.11,2.11,0,0,0,.5-.17.47.47,0,0,0,.23-.45.53.53,0,0,0-.28-.5,1.27,1.27,0,0,0-.6-.15,1.36,1.36,0,0,0-.5.07.83.83,0,0,0-.31.17.69.69,0,0,0-.15.24.67.67,0,0,0,0,.24h-2.49a2.06,2.06,0,0,1,.37-1.2,2.32,2.32,0,0,1,.85-.7,3.69,3.69,0,0,1,1.14-.32,10.49,10.49,0,0,1,1.25-.08,6.36,6.36,0,0,1,1.93.23,2.17,2.17,0,0,1,1,.63,1.79,1.79,0,0,1,.36.89c0,.33,0,.66,0,1Zm-2.56-1.58a2.5,2.5,0,0,1-.52.19l-.54.15a2.19,2.19,0,0,0-.67.25.54.54,0,0,0-.23.5.62.62,0,0,0,.23.45.92.92,0,0,0,.6.2,1.16,1.16,0,0,0,.78-.27,1.1,1.1,0,0,0,.35-.82Z"/><path class="cls-1" d="M205.49,224.73a.71.71,0,0,0-.31-.52.9.9,0,0,0-.6-.21,1.41,1.41,0,0,0-.54.11.41.41,0,0,0-.27.43.3.3,0,0,0,.1.24l.21.13a1.73,1.73,0,0,0,.43.12l.58.11.66.13c.23,0,.46.11.68.18a4.08,4.08,0,0,1,.64.26,2,2,0,0,1,.54.4,1.75,1.75,0,0,1,.36.55,1.89,1.89,0,0,1,.14.75,2.16,2.16,0,0,1-.32,1.21,2.27,2.27,0,0,1-.82.75,3.72,3.72,0,0,1-1.15.4,8,8,0,0,1-1.28.11,5.65,5.65,0,0,1-1.23-.13,3.42,3.42,0,0,1-1.12-.42,2.74,2.74,0,0,1-.82-.77,2.13,2.13,0,0,1-.33-1.15h2.56a.81.81,0,0,0,.32.62,1,1,0,0,0,.72.2l.29,0a1.4,1.4,0,0,0,.29-.09.76.76,0,0,0,.23-.17.39.39,0,0,0,.09-.26.62.62,0,0,0,0-.25.42.42,0,0,0-.22-.19,1.68,1.68,0,0,0-.45-.15c-.2,0-.44-.1-.75-.15a5,5,0,0,1-2.2-.78,1.71,1.71,0,0,1-.67-1.42,1.84,1.84,0,0,1,.32-1.1,2.34,2.34,0,0,1,.81-.68,3.8,3.8,0,0,1,1.08-.35,6.08,6.08,0,0,1,1.1-.1,7.88,7.88,0,0,1,1.17.09,4.13,4.13,0,0,1,1.08.34,2.31,2.31,0,0,1,.81.68,2,2,0,0,1,.35,1.1Z"/><path class="cls-1" d="M213.2,224.34h-1.09v-1.65h1.09a4.59,4.59,0,0,1,.07-1,1.67,1.67,0,0,1,.48-.93,2,2,0,0,1,1-.55,7.39,7.39,0,0,1,1.36-.11l.6,0,.6,0V222l-.32-.06-.32,0a1,1,0,0,0-.67.17.85.85,0,0,0-.16.66h1.41v1.65h-1.35v5.37H213.2Z"/><path class="cls-1" d="M224.92,226.19a4.33,4.33,0,0,1-.23,1.4,3.42,3.42,0,0,1-.7,1.18,3.58,3.58,0,0,1-1.19.81,4.43,4.43,0,0,1-1.71.3,4.5,4.5,0,0,1-1.71-.3,3.68,3.68,0,0,1-1.19-.81,3.25,3.25,0,0,1-.69-1.18,4.35,4.35,0,0,1,0-2.79,3.3,3.3,0,0,1,.69-1.17,3.53,3.53,0,0,1,1.19-.81,4.5,4.5,0,0,1,1.71-.3,4.43,4.43,0,0,1,1.71.3,3.43,3.43,0,0,1,1.19.81,3.47,3.47,0,0,1,.7,1.17A4.31,4.31,0,0,1,224.92,226.19Zm-2.68,0a5.78,5.78,0,0,0,0-.58,1.92,1.92,0,0,0-.16-.56,1.18,1.18,0,0,0-.35-.42,1,1,0,0,0-.61-.17,1,1,0,0,0-.61.17,1.18,1.18,0,0,0-.35.42,1.65,1.65,0,0,0-.15.56c0,.2,0,.39,0,.58s0,.39,0,.59a1.72,1.72,0,0,0,.15.56,1.21,1.21,0,0,0,.35.43,1,1,0,0,0,.61.17,1,1,0,0,0,.61-.17,1.21,1.21,0,0,0,.35-.43,2,2,0,0,0,.16-.56C222.23,226.58,222.24,226.38,222.24,226.19Z"/><path class="cls-1" d="M225.64,222.69h2.57v1.13h0a2.5,2.5,0,0,1,.78-1,2,2,0,0,1,1.19-.33,2.72,2.72,0,0,1,.78.11V225l-.42-.12a2.65,2.65,0,0,0-.63-.05,1.49,1.49,0,0,0-1.21.49,2.58,2.58,0,0,0-.41,1.63v2.77h-2.68Z"/><path class="cls-1" d="M235.26,220.06h2.68v9.65h-2.68Z"/><path class="cls-1" d="M241.74,221.94h-2.68v-1.88h2.68Zm-2.68.75h2.68v7h-2.68Z"/><path class="cls-1" d="M243.36,224.34h-1.1v-1.65h1.1a4.58,4.58,0,0,1,.06-1,1.76,1.76,0,0,1,.49-.93,2,2,0,0,1,1-.55,7.31,7.31,0,0,1,1.36-.11l.6,0c.19,0,.39,0,.6,0V222l-.32-.06-.33,0a1,1,0,0,0-.67.17.85.85,0,0,0-.15.66h1.4v1.65H246v5.37h-2.67Z"/><path class="cls-1" d="M250,226.8a1.58,1.58,0,0,0,.39,1,1.26,1.26,0,0,0,1,.38A1.78,1.78,0,0,0,252,228a.93.93,0,0,0,.49-.37h2.48a3.06,3.06,0,0,1-.56,1,3.3,3.3,0,0,1-.85.69,4.1,4.1,0,0,1-1,.41,5.17,5.17,0,0,1-2.71-.11,3.49,3.49,0,0,1-1.25-.71,3.12,3.12,0,0,1-.83-1.15,4.09,4.09,0,0,1,0-3,3.52,3.52,0,0,1,1.92-2,3.89,3.89,0,0,1,1.52-.29,5.06,5.06,0,0,1,1.79.28,3.15,3.15,0,0,1,1.25.83,3.49,3.49,0,0,1,.71,1.35,6.7,6.7,0,0,1,.23,1.82Zm2.56-1.39a1.16,1.16,0,0,0-.33-.83,1.12,1.12,0,0,0-.84-.35,1.39,1.39,0,0,0-.95.31,1.44,1.44,0,0,0-.43.87Z"/><path class="cls-2" d="M185.94,202.51h4.23l.18,1.38c.31-1.07,2.49-1.87,3.79-1.87,3,0,4.23,1.83,4.23,5.08v7h-4.68v-6.28c0-1.25-.27-2.19-1.51-2.19s-1.79,1.25-1.79,2.14v6.33h-4.45V202.51Z"/><path class="cls-2" d="M166.42,197.7h-7.8v16.49h5.17v-4.91h2.63c4.9,0,6.82-2.45,6.82-6C173.24,200,171.14,197.7,166.42,197.7Zm-.54,7.53h-2.09v-3.48h2.09c1.16,0,2.59.31,2.59,1.79S167.13,205.23,165.88,205.23Z"/><path class="cls-2" d="M237.63,202.51h4.28l.13,1.38c.36-1.07,2.5-1.87,3.79-1.87,3,0,4.24,1.83,4.24,5.08v7.09h-4.68v-6.33c0-1.25-.32-2.19-1.52-2.19s-1.74,1.25-1.74,2.14v6.38h-4.5V202.51Z"/><path class="cls-2" d="M216.06,210a2.3,2.3,0,0,0,.49,1.38,2.43,2.43,0,0,0,1.3.49c.84,0,1.47-.27,1.47-1.07,0-1.92-7-.22-7-4.86,0-3.21,2.46-4,5.08-4s6.2.49,6.07,4h-3.93a1.68,1.68,0,0,0-.35-.85,1.6,1.6,0,0,0-1.21-.49c-.8,0-1.56.09-1.56.71,0,1.83,7.36.58,7.36,4.86,0,3-2.1,4.37-6.15,4.37-2.54-.09-5.75-1.38-5.75-4.59Z"/><path class="cls-2" d="M264.15,207a1.53,1.53,0,0,0-.4-1.11,1.63,1.63,0,0,0-1.25-.76c-1.74,0-2.18,1.74-2.18,3.16s.75,2.95,2.09,2.95a1.93,1.93,0,0,0,1.83-2h4.05c.14,2.36-1.51,5.26-6.06,5.26a6,6,0,0,1-6.28-6.24c0-4.55,3.38-6.24,6.24-6.24,3.92,0,6.1,2.32,6.06,5Z"/><path class="cls-2" d="M184.87,212.49v-5.26c0-2.58-.54-5.17-5.49-5.17s-5.83,2-5.83,4.46h3.92c.13-1.42.71-1.6,1.65-1.6.49,0,1.42,0,1.42.8,0,2.54-7.62.18-7.62,5.3,0,3.12,2.86,3.3,4.33,3.34a4.64,4.64,0,0,0,3.25-1.15l.49,1,4.41-.05v-.09A1.82,1.82,0,0,1,184.87,212.49Zm-6.55-.67c-.9,0-1.3-.4-1.3-1.15,0-1.16,2-1.12,3.57-1.83C180.72,210.22,179.88,211.82,178.32,211.82Z"/><path class="cls-2" d="M211,212.49v-5.26c0-2.58-.49-5.17-5.44-5.17-5.13,0-5.84,2-5.84,4.46h3.88c.18-1.42.71-1.6,1.69-1.6.49,0,1.47,0,1.47.8,0,2.54-7.71.18-7.71,5.3,0,3.12,2.81,3.3,4.33,3.34a4.78,4.78,0,0,0,3.34-1.15l.44,1,4.37-.05v-.09A1.82,1.82,0,0,1,211,212.49Zm-6.51-.67c-1,0-1.34-.4-1.34-1.15,0-1.16,2-1.12,3.66-1.83C206.93,210.22,206,211.82,204.52,211.82Z"/><polygon class="cls-2" points="255.24 214.19 255.24 202.51 250.91 202.51 250.91 214.19 255.24 214.19 255.24 214.19"/><polygon class="cls-2" points="250.91 201.04 255.24 201.04 255.24 197.65 250.91 197.65 250.91 201.04 250.91 201.04"/><path class="cls-2" d="M230.68,202.11a6.24,6.24,0,1,0,6.19,6.24A5.92,5.92,0,0,0,230.68,202.11Zm0,9.45c-1.6-.05-2.1-1.83-2.1-3.21s.5-3.25,2.1-3.25,2,1.82,2,3.25S232.2,211.56,230.68,211.56Z"/></svg>